<?xml version="1.0" encoding="UTF-8" standalone="no"?>
<!-- Generator: Adobe Illustrator 16.0.0, SVG Export Plug-In . SVG Version: 6.00 Build 0)  -->

<svg
   xmlns:dc="http://purl.org/dc/elements/1.1/"
   xmlns:cc="http://creativecommons.org/ns#"
   xmlns:rdf="http://www.w3.org/1999/02/22-rdf-syntax-ns#"
   xmlns:svg="http://www.w3.org/2000/svg"
   xmlns="http://www.w3.org/2000/svg"
   xmlns:sodipodi="http://sodipodi.sourceforge.net/DTD/sodipodi-0.dtd"
   xmlns:inkscape="http://www.inkscape.org/namespaces/inkscape"
   version="1.1"
   id="Layer_1"
   x="0px"
   y="0px"
   width="100"
   height="26"
   viewBox="0 0 100 26"
   enable-background="new 0 0 800.475 646.106"
   xml:space="preserve"
   inkscape:version="0.91 r13725"
   sodipodi:docname="latestcb=20160802170243.svg"><title
     id="title4186">Wanda Group logo</title><metadata
     id="metadata39"><rdf:RDF><cc:Work
         rdf:about=""><dc:format>image/svg+xml</dc:format><dc:type
           rdf:resource="http://purl.org/dc/dcmitype/StillImage" /><dc:title>Wanda Group logo</dc:title><cc:license
           rdf:resource="http://scripts.sil.org/OFL" /></cc:Work><cc:License
         rdf:about="http://scripts.sil.org/OFL"><cc:permits
           rdf:resource="http://scripts.sil.org/pub/OFL/Reproduction" /><cc:permits
           rdf:resource="http://scripts.sil.org/pub/OFL/Distribution" /><cc:permits
           rdf:resource="http://scripts.sil.org/pub/OFL/Embedding" /><cc:permits
           rdf:resource="http://scripts.sil.org/pub/OFL/DerivativeWorks" /><cc:requires
           rdf:resource="http://scripts.sil.org/pub/OFL/Notice" /><cc:requires
           rdf:resource="http://scripts.sil.org/pub/OFL/Attribution" /><cc:requires
           rdf:resource="http://scripts.sil.org/pub/OFL/ShareAlike" /><cc:requires
           rdf:resource="http://scripts.sil.org/pub/OFL/DerivativeRenaming" /><cc:requires
           rdf:resource="http://scripts.sil.org/pub/OFL/BundlingWhenSelling" /></cc:License></rdf:RDF></metadata><defs
     id="defs37" /><sodipodi:namedview
     pagecolor="#ffffff"
     bordercolor="#666666"
     borderopacity="1"
     objecttolerance="10"
     gridtolerance="10"
     guidetolerance="10"
     inkscape:pageopacity="0"
     inkscape:pageshadow="2"
     inkscape:window-width="1366"
     inkscape:window-height="705"
     id="namedview35"
     showgrid="false"
     inkscape:showpageshadow="false"
     inkscape:zoom="1"
     inkscape:cx="99.332265"
     inkscape:cy="19.596334"
     inkscape:window-x="-8"
     inkscape:window-y="-8"
     inkscape:window-maximized="1"
     inkscape:current-layer="Layer_1" /><g
     id="g3"
     transform="matrix(0.08328067,0,0,0.08315353,32.266371,-29.033444)"><path
       style="fill:#075fa9"
       d="m -325.57227,637.92969 c -6.105,0 -11.49292,0.98503 -16.16992,2.95703 -3.503,1.478 -6.7474,3.71034 -9.6914,6.77734 -2.944,3.031 -5.27166,6.45058 -6.97266,10.26758 -2.285,5.181 -3.43945,11.59722 -3.43945,19.24024 0,11.925 3.2999,21.29584 9.8789,28.08984 6.579,6.82 15.4358,10.20703 26.5918,10.20703 11.017,0 19.8192,-3.40305 26.4082,-10.24805 6.571,-6.843 9.85157,-16.30139 9.85157,-28.40039 0,-12.22 -3.30379,-21.74642 -9.92579,-28.60742 -6.646,-6.858 -15.49325,-10.2832 -26.53125,-10.2832 z m -155.70703,0.008 c -7.175,0 -13.16503,1.25028 -17.95703,3.73828 -6.308,3.242 -11.1019,7.89289 -14.3789,13.96289 -3.27,6.074 -4.91602,13.01474 -4.91602,20.80274 0,7.212 1.47639,13.86823 4.40039,19.99023 2.945,6.108 7.31539,10.81333 13.15039,14.11133 5.834,3.292 12.66653,4.9375 20.51953,4.9375 6.162,0 12.27344,-1.16263 18.27344,-3.51563 6.023,-2.332 10.61997,-5.02884 13.79297,-8.08984 l 0,-29.86719 -32.63867,0 0,12.6211 17.34375,0.002 0,9.50195 c -2.286,1.783 -5.02413,3.29821 -8.20313,4.53321 -3.191,1.25 -6.37697,1.87304 -9.54297,1.87304 -6.415,0 -11.60592,-2.22492 -15.54492,-6.66992 -3.974,-4.467 -5.94726,-11.1242 -5.94726,-20.0332 0,-8.271 1.94923,-14.47597 5.86523,-18.66797 3.902,-4.196 9.1532,-6.28516 15.7832,-6.28516 4.365,0 8.00302,1.06146 10.91602,3.18946 2.912,2.131 4.89284,5.04665 5.96484,8.72265 l 15.03321,-2.81445 c -1.499,-6.885 -4.87347,-12.28245 -10.10547,-16.18945 -5.234,-3.898 -12.5026,-5.85352 -21.8086,-5.85352 z m -340.8789,1.27344 -29.22461,74.97851 16.08203,0 6.17578,-17.02734 29.97461,0 6.54883,17.02734 16.46484,0 -30.01953,-74.97851 -16.00195,0 z m 226.96289,0 -29.20703,74.97851 16.05468,0 6.19141,-17.02734 29.96484,0 6.56055,17.02734 16.46094,0 -30.02735,-74.97851 -15.99804,0 z m 160.82422,0 0,74.97851 15.13671,0 0,-31.30468 3.06055,0 c 3.482,0 6.03505,0.29575 7.62305,0.84375 1.61,0.569 3.12445,1.58984 4.56445,3.13086 1.426,1.51698 4.08661,5.18862 7.97461,11.01562 l 10.95703,16.31641 18.08789,0 -9.14258,-14.61524 c -3.62299,-5.852 -6.4959,-9.89073 -8.6289,-12.17773 -2.124,-2.302 -4.83252,-4.39464 -8.10352,-6.30664 6.582,-0.954 11.53194,-3.26292 14.83594,-6.91992 3.308,-3.66501 4.95703,-8.32046 4.95703,-13.93946 0,-4.432 -1.08758,-8.37398 -3.26758,-11.83398 -2.182,-3.426 -5.10546,-5.82683 -8.73047,-7.17383 -3.62299,-1.343 -9.44689,-2.01367 -17.46289,-2.01367 l -31.86132,0 z m -509.74219,0.01 17.90039,74.97852 16.41406,0 14.89258,-56.05664 14.93359,56.05664 16.07227,0 18.19531,-74.97852 -15.23828,0 -11.50976,52.38282 -13.13477,-52.38282 -18,0 -13.72266,51.5 -11.30468,-51.5 -15.49805,0 z m 176.17578,0 0,74.97852 14.0625,0 0,-48.90039 30.23633,48.90039 15.17773,0 0,-74.97852 -14.05664,0 0,50.07227 -30.6875,-50.07227 -14.73242,0 z m 75.43945,0 0,74.96875 28.49024,0 c 5.596,0 10.06234,-0.54217 13.40234,-1.57617 4.473,-1.436 8.01172,-3.43728 10.63672,-5.98828 3.476,-3.373 6.15611,-7.79605 8.03711,-13.24805 1.535,-4.467 2.30273,-9.79084 2.30273,-15.96484 0,-7.022 -0.82407,-12.91761 -2.45507,-17.72461 -1.643,-4.787 -4.02893,-8.82753 -7.16993,-12.14453 -3.135,-3.318 -6.88778,-5.61444 -11.30078,-6.89844 -3.27,-0.962 -8.02172,-1.42383 -14.26172,-1.42383 l -27.68164,0 z m 415.10352,0 0,39.98828 c 0,8.384 0.48956,14.73639 1.47656,19.0254 0.688,2.91199 2.11305,5.67103 4.24805,8.33203 2.155,2.628 5.0742,4.77754 8.7832,6.43554 3.687,1.649 9.11702,2.47852 16.29102,2.47852 5.924,0 10.73592,-0.76735 14.41992,-2.27735 3.687,-1.51198 6.62117,-3.55846 8.82617,-6.10546 2.198,-2.566 3.70758,-5.69493 4.51758,-9.41993 0.818,-3.724 1.22265,-10.08293 1.22265,-19.08593 l 0,-39.36914 -15.11523,0 0,41.46289 c 0,5.945 -0.23973,10.20714 -0.67773,12.74414 -0.449,2.561 -1.76336,4.71942 -3.94336,6.48242 -2.178,1.753 -5.41685,2.62695 -9.71485,2.62695 -4.234,0 -7.55995,-0.92906 -10.00195,-2.78906 -2.443,-1.854 -3.98214,-4.31953 -4.61914,-7.39453 -0.386,-1.905 -0.56836,-6.08316 -0.56836,-12.53516 l 0,-40.59961 -15.14453,0 z m 75.75391,0 0,74.96875 15.15429,0 0,-28.26953 9.86719,0 c 6.839,0 12.09622,-0.37265 15.69922,-1.09765 2.673,-0.576 5.28933,-1.73921 7.86133,-3.53321 2.57,-1.798 4.69737,-4.26134 6.35937,-7.40234 1.673,-3.134 2.50781,-6.99452 2.50781,-11.60352 0,-5.979 -1.44865,-10.85242 -4.34765,-14.60742 -2.891,-3.766 -6.48721,-6.23056 -10.78321,-7.35156 -2.794,-0.753 -8.80662,-1.10352 -18.01562,-1.10352 l -24.30273,0 z m -123.78516,11.65235 c 6.247,0 11.24176,2.11289 15.00976,6.33789 3.767,4.237 5.65235,10.64347 5.65235,19.23047 0,8.704 -1.92983,15.22521 -5.79883,19.57421 -3.873,4.35501 -8.82028,6.52344 -14.86328,6.52344 -6.036,0 -11.00658,-2.18008 -14.9336,-6.58008 -3.92099,-4.38 -5.87304,-10.81454 -5.87304,-19.31054 0,-8.617 1.90551,-15.07666 5.72851,-19.34766 3.808,-4.283 8.84513,-6.42773 15.07813,-6.42773 z m -351.92774,1.02929 6.79883,0 c 6.175,0 10.30283,0.22594 12.42383,0.71094 2.84,0.621 5.18286,1.78467 7.00586,3.51367 1.858,1.75 3.28359,4.17053 4.30859,7.26953 1.016,3.11 1.54297,7.56738 1.54297,13.35938 0,5.789 -0.52697,10.37056 -1.54297,13.72656 -1.026,3.363 -2.34584,5.78428 -3.96484,7.23828 -1.624,1.469 -3.65823,2.51019 -6.11523,3.11719 -1.871,0.482 -4.93144,0.71094 -9.14844,0.71094 l -11.3086,0 0,-49.64649 z m 490.86524,0 7.31055,0 c 5.457,0 9.08053,0.16391 10.89453,0.50391 2.456,0.447 4.48061,1.55122 6.09961,3.32422 1.592,1.766 2.38867,4.03014 2.38867,6.74414 0,2.235 -0.55466,4.14989 -1.72266,5.83789 -1.139,1.662 -2.71456,2.90073 -4.72656,3.67773 -2.004,0.777 -5.99975,1.17383 -11.96875,1.17383 l -8.27539,0 0,-21.26172 z m -232.7461,0.002 11.82618,0 c 6.132,0 9.80325,0.0753 11.03125,0.23828 2.466,0.402 4.36575,1.39203 5.71875,2.95703 1.329,1.544 2.01367,3.58237 2.01367,6.10937 0,2.245 -0.5192,4.11429 -1.5332,5.61329 -1.032,1.503 -2.45472,2.56268 -4.26172,3.17968 -1.797,0.621 -6.32966,0.90625 -13.59766,0.90625 l -11.19727,0 0,-19.0039 z m -395.11132,4.79101 10.33398,27.84571 -20.46094,0 10.12696,-27.84571 z m 226.9707,0 10.33008,27.84571 -20.45899,0 10.12891,-27.84571 z"
       transform="translate(944.66814,-69.375073)"
       id="polyline7"
       inkscape:connector-curvature="0" /><path
       style="fill:#075fa9"
       d="m -258.78906,520.90039 c -5.213,0 -9.35911,4.17113 -9.41211,9.32813 l 0,133.0371 c 0.04,4.872 3.80656,8.78118 8.60156,9.20118 l 152.77149,0 c 4.70399,-0.42 8.424417,-4.197 8.607417,-9 l -0.226563,-134.29883 c -0.576,-4.643 -4.364204,-8.26758 -9.158204,-8.26758 l -151.18359,0 z m -326.01367,0.0469 0,30.58007 -48.25782,0 0,17.36328 48.14453,0 c -2.51,37.202 -42.36453,48.24219 -48.14453,48.24219 l 0,20.49219 c 4.912,0.601 43.02516,-2.62731 62.28516,-34.07031 19.279,31.53 57.53703,34.67131 62.45703,34.07031 l 0,-20.49219 c -5.787,0 -45.63533,-10.27318 -48.11133,-48.24219 l 48.11133,0 0,-17.36328 -48.24609,0 0,-30.58007 -28.23828,0 z m 197.88085,0.24804 c 0,0 -7.38085,0.12206 -7.38085,6.78907 l 0,5.95703 -46.25196,0 0.0605,-8.22461 c 0,0 0.0307,-5.39505 -8.2793,-2.37305 -5.486,2.014 -17.94722,6.9527 -25.82422,10.0957 -7.308,3.163 -7.01953,9.7793 -7.01953,9.7793 l 0,15.32617 12.28321,-4.51172 0,49.76953 c 0,0 -0.71904,10.89649 9.41796,10.89649 l 55.62891,0 0.0195,7.58984 -77.34961,0 0,15.33594 41.63477,0 c -11.596,10.687 -32.60477,14.685 -41.63477,15.375 l 0,19.51953 c 5.342,-0.107 48.02221,-0.36753 76.78321,-34.89453 l 0.5664,0 0.0606,34.89453 11.02344,0 c 17.492,0 17.17968,-12.20508 17.17968,-12.20508 l 0,-22.68945 0.61914,0 c 29.608,35.498 71.43683,34.78653 76.79883,34.89453 l 0,-19.99414 c -7.358,-0.423 -31.23887,-3.75044 -41.67187,-14.89844 l 41.60547,0 0,-15.33593 -77.35352,0 0,-7.5918 77.41797,0 0,-14.75586 -67.45117,0 0,-7.24024 67.45117,0 0,-14.79101 -67.45117,0 0,-7.18164 67.45117,0 0,-14.78125 -67.45117,0 0,-7.21094 67.45117,0 0,-9.81445 c 0,0 0.43892,-4.98047 -5.33008,-4.98047 l -62.12109,0 0,-12.74805 -20.88282,0 z m -291.02148,4.16211 -8.69922,20.32227 0.0508,0.0312 0.1211,-0.35742 c 0,0 10.71948,2.43592 19.89648,6.54492 9.84,3.638 18.4545,8.13543 18.9375,8.39844 l 8.57422,-20.02735 c 0,0 -10.29203,-6.35826 -18.95703,-9.19726 -9.094,-3.698 -19.92383,-5.71485 -19.92383,-5.71485 z m -214.37695,3.09961 c -5.952,-10e-4 -5.65625,5.44141 -5.65625,5.44141 l 0,11.91406 49.85937,0 0,34.5 c 0,61.059 -46.21679,66.52148 -46.21679,66.52148 l -0.0234,24.11329 c 0,0 66.03451,-3.59236 73.72851,-77.44336 l 61.98243,0 0,56.07812 -33.92969,0 0,15.07617 c 0,0 -0.19906,5.93555 6.08594,5.93555 l 40.77343,0 c 16.053,0 15.34961,-12.20703 15.34961,-12.20703 l 0,-76.94531 c 0,0 0.16638,-8.9375 -10.89062,-8.9375 l -78.5918,0 0,-26.69141 104.81445,0 0,-11.94727 c 0,0 0.68793,-5.4082 -5.20507,-5.4082 l -172.08008,0 z m 652.37304,7.63867 113.25586,0 0,121.97266 -113.25586,0 0,-121.97266 z m 61.8086,10.95313 0,14.80273 -51.12891,0 0,15.25 50.9082,0 c -15.42499,28.695 -45.31568,38.48538 -50.30468,39.98438 l 0,23.375 c 6.032,-0.875 39.20339,-10.73081 50.52539,-28.00782 l 0,35.59571 11.0625,0 c 18.05,0 17.19336,-12.18555 17.19336,-12.18555 l 0,-58.76172 15.28125,0 0,-15.25 -15.28125,0 0,-14.80273 -28.25586,0 z m -262.92774,1.68945 46.76368,0 0,7.21094 -46.76368,0 0,-7.21094 z m -250.07812,17.9961 0,17.35546 20.57226,0 0,29.06641 c 0,28.019 -20.52929,32.79297 -20.52929,32.79297 l -0.043,24.19726 c 0,0 20.01656,-0.20895 34.10156,-19.75195 5.564,11.901 16.91772,21.758 35.63672,22.125 6.814,0.143 82.17384,0.024 105.96484,0 7.678,0 7.12305,-6.17383 7.12305,-6.17383 l 0,-13.52148 c 0,0 -102.46412,0.194 -107.57812,0 -20.508,-0.722 -28.64097,-14.54242 -27.91797,-45.73242 l -0.0957,0.0527 c 0.186,-2.724 0.34766,-5.35236 0.34766,-8.31836 l 0,-22.66211 c 0,0 0.85444,-9.42969 -8.10156,-9.42968 l -39.48047,0 z m 250.07812,3.99609 46.76368,0 0,7.17969 -46.76368,0 0,-7.17969 z m 0,21.97265 46.76368,0 0,7.24024 -46.76368,0 0,-7.24024 z"
       transform="translate(897.97786,-150.57556)"
       id="path27"
       inkscape:connector-curvature="0" /></g><path
     d="M 13.206103,0.66531386 C 6.4288301,0.81085138 1.0476358,6.4306291 1.204922,13.212961 1.3494801,19.987135 6.9661587,25.362041 13.750011,25.219417 20.529773,25.066053 25.906228,19.452858 25.75859,12.670941 25.606294,5.891606 19.986865,0.51386476 13.206103,0.66531386 M 13.700718,22.950925 c -3.621911,0.0751 -6.8367239,-1.758939 -8.6954321,-4.579111 0.8613194,0.39157 1.8702765,0.660666 2.9582616,0.745507 2.2792945,0.187084 4.3317635,-0.440943 5.5095955,-1.531645 1.169083,1.090702 3.218562,1.718729 5.502606,1.531645 1.108292,-0.08875 2.128907,-0.367592 2.997815,-0.773482 -1.766872,2.710018 -4.792743,4.527989 -8.272846,4.607086 M 12.800835,6.8976324 c 0,0 2.480804,-0.5450177 2.36989,2.8188391 -0.03759,1.6270605 -0.32607,3.2069955 -0.664639,4.0923795 -0.259221,0.716449 -0.626765,0.739596 -0.914291,0.745424 -0.0107,-3.668671 -0.79096,-7.6566426 -0.79096,-7.6566426 m 7.088525,8.8614926 c -1.91358,0.754916 -3.810012,0.859989 -5.167197,0.43012 1.227874,-1.548047 1.7209,-3.482752 1.940726,-4.819486 C 16.85399,10.252914 16.935758,9.0366571 16.831764,7.7693616 16.609017,4.9532699 14.266023,4.7467857 13.454906,4.6166508 12.650457,4.4796061 10.686575,4.4662841 10.686575,4.4662841 c 0,0 1.202808,4.7980052 1.473927,11.7380309 -1.356355,0.411137 -3.2256318,0.298319 -5.1037471,-0.44519 -1.6263035,-0.633772 -2.922537,-1.596254 -3.7085078,-2.624261 l -0.013598,-0.10241 C 3.2054087,7.4259989 7.6510948,2.7813583 13.257945,2.6588 c 5.599112,-0.1252226 10.245387,4.3244235 10.370868,9.921222 0.005,0.182255 -0.0163,0.352937 -0.0163,0.534277 -0.79288,1.036749 -2.095943,2.006308 -3.723166,2.644826"
     id="path5"
     inkscape:connector-curvature="0"
     style="fill:#075fa9" /></svg>