<?xml version="1.0" encoding="UTF-8" standalone="no"?>
<!-- Created with Inkscape (http://www.inkscape.org/) -->

<svg
   xmlns:dc="http://purl.org/dc/elements/1.1/"
   xmlns:cc="http://creativecommons.org/ns#"
   xmlns:rdf="http://www.w3.org/1999/02/22-rdf-syntax-ns#"
   xmlns:svg="http://www.w3.org/2000/svg"
   xmlns="http://www.w3.org/2000/svg"
   xmlns:sodipodi="http://sodipodi.sourceforge.net/DTD/sodipodi-0.dtd"
   xmlns:inkscape="http://www.inkscape.org/namespaces/inkscape"
   width="213.53"
   height="39.39613"
   viewBox="0 0 213.53 39.396129"
   id="svg3503"
   version="1.1"
   inkscape:version="0.91 r13725"
   sodipodi:docname="china construction bank.svg">
  <defs
     id="defs3505" />
  <sodipodi:namedview
     id="base"
     pagecolor="#ffffff"
     bordercolor="#666666"
     borderopacity="1.0"
     inkscape:pageopacity="0.0"
     inkscape:pageshadow="2"
     inkscape:zoom="4.2482279"
     inkscape:cx="106.515"
     inkscape:cy="19.448067"
     inkscape:document-units="px"
     inkscape:current-layer="layer1"
     showgrid="false"
     fit-margin-top="0"
     fit-margin-left="0"
     fit-margin-right="0"
     fit-margin-bottom="0"
     units="px"
     inkscape:window-width="1280"
     inkscape:window-height="744"
     inkscape:window-x="-4"
     inkscape:window-y="-4"
     inkscape:window-maximized="1" />
  <metadata
     id="metadata3508">
    <rdf:RDF>
      <cc:Work
         rdf:about="">
        <dc:format>image/svg+xml</dc:format>
        <dc:type
           rdf:resource="http://purl.org/dc/dcmitype/StillImage" />
        <dc:title></dc:title>
      </cc:Work>
    </rdf:RDF>
  </metadata>
  <g
     inkscape:label="Layer 1"
     inkscape:groupmode="layer"
     id="layer1"
     transform="translate(1217.9436,-826.69985)">
    <g
       transform="translate(-1854.0357,96.892871)"
       id="layer1-3"
       inkscape:label="Layer 1">
      <path
         id="path248"
         style="fill:#231f20;fill-opacity:1;fill-rule:evenodd;stroke:none"
         d="m 800.10464,760.50186 2.67625,0 c 1.2825,0 2.55625,0.15875 2.55625,1.4525 0,0.69625 -0.43875,1.59625 -1.79625,1.59625 l -3.43625,0 0,-3.04875 z m 0,-3.81875 2.325,0 c 2.10375,0 2.41,0.975 2.41,1.48625 0,0.575 -0.3525,1.31875 -1.9125,1.31875 l -2.8225,0 0,-2.805 z m -1.37125,7.88125 5.24375,0 c 0.75875,0 2.70125,-0.69625 2.70125,-2.54875 0,-1.64875 -1.53125,-2.02625 -1.82625,-2.16125 0.88,-0.33 1.37375,-1.06125 1.37375,-1.89 0,-1.745 -1.92625,-2.29375 -2.8325,-2.29375 l -4.66,0 0,8.89375"
         inkscape:connector-curvature="0" />
      <path
         id="path250"
         style="fill:#231f20;fill-opacity:1;fill-rule:evenodd;stroke:none"
         d="m 812.09964,762.48686 c 0,0.2075 -0.80125,1.2925 -2.46625,1.25625 -0.67125,-0.0137 -1.37125,-0.30625 -1.345,-1.10125 0.0175,-0.4725 0.51,-0.7775 0.73,-0.86375 0.715,-0.27 2.09,-0.2425 3.08125,-0.57375 l 0,1.2825 z m 1.27375,-3.3925 c -0.0312,-0.63375 -0.82,-1.04875 -1.78375,-1.23375 -0.48125,-0.0962 -0.90625,-0.1075 -1.31625,-0.1075 -0.70125,0 -1.1825,0.12125 -1.575,0.28 -0.80375,0.3175 -1.1675,0.89 -1.27125,1.2575 l -0.0438,0.55875 1.15375,0 c 0.0288,-0.29125 0.1175,-1.1825 1.5625,-1.1825 0.81625,0 1.8825,0.20875 1.9875,0.6575 l 0,0.75875 c 0,0.34 -0.45375,0.4625 -0.615,0.48625 -0.73,0.14875 -1.445,0.04 -2.83,0.37875 -0.7925,0.19875 -1.5225,0.61125 -1.61125,1.67125 -0.1025,1.25625 0.9675,2.00125 2.67375,2.00125 1.0075,0 1.84125,-0.5475 2.44,-0.9275 0.0412,0.4275 0.585,0.9275 1.14125,0.9275 0.4075,0 0.65625,-0.035 0.9475,-0.11 l 0,-0.80625 c -0.0875,0.0388 -0.18875,0.0388 -0.27625,0.0388 -0.3075,0 -0.58375,-0.195 -0.58375,-0.38 l 0,-4.26875"
         inkscape:connector-curvature="0" />
      <path
         id="path252"
         style="fill:#231f20;fill-opacity:1;fill-rule:nonzero;stroke:none"
         d="m 814.65589,758.08061 0,6.4075 1.23,0 0,-3.40375 c -0.0312,-1.72 1.07875,-2.2575 2.1025,-2.2575 0.84625,0 1.5475,0.415 1.5325,1.20875 l 0,4.4525 1.2275,0 0,-4.97875 c -0.1625,-0.95125 -0.83125,-1.26875 -1.2125,-1.44 -0.1875,-0.07 -0.70125,-0.1575 -1.2575,-0.16875 -0.55125,-0.0138 -1.15,0.0587 -1.51875,0.29125 -0.28875,0.1225 -0.61375,0.39125 -0.84625,0.695 l -0.0275,0 0,-0.80625 -1.23,0"
         inkscape:connector-curvature="0" />
      <path
         id="path254"
         style="fill:#231f20;fill-opacity:1;fill-rule:nonzero;stroke:none"
         d="m 821.69964,755.59311 0,8.895 1.2275,0 0,-2.40375 1.225,-1.0125 2.5275,3.41625 1.50625,0 -3.1125,-4.18625 2.67125,-2.22125 -1.575,0 -3.2425,2.6725 0,-5.16 -1.2275,0"
         inkscape:connector-curvature="0" />
      <path
         id="path256"
         style="fill:#231f20;fill-opacity:1;fill-rule:nonzero;stroke:none"
         d="m 693.14464,758.33811 c -0.62625,-1.80625 -2.0875,-2.915 -4.3375,-2.8925 -1.32625,0.015 -2.4975,0.54875 -2.95,0.9175 -1.24,0.98625 -1.68125,2.4875 -1.6925,3.74375 -0.0175,1.25625 0.4525,2.75625 1.6925,3.74625 0.4525,0.365 1.62375,0.90125 2.95,0.915 2.425,0.0238 4.09125,-1.5 4.545,-3.53875 l -1.40125,0 c -0.54125,1.69625 -1.5075,2.51375 -3.06875,2.51375 -0.8475,0 -1.70875,-0.28 -2.295,-0.855 -0.62625,-0.62125 -1.05,-1.695 -1.02,-2.78125 -0.03,-1.085 0.39375,-2.15875 1.02,-2.78 0.58625,-0.5725 1.4475,-0.85375 2.295,-0.85375 1.475,0 2.37875,0.74375 2.84875,1.865 l 1.41375,0"
         inkscape:connector-curvature="0" />
      <path
         id="path258"
         style="fill:#231f20;fill-opacity:1;fill-rule:nonzero;stroke:none"
         d="m 694.12714,764.48811 1.225,0 0,-4.16 c 0,-0.56125 0.2075,-0.7325 0.47,-0.95375 0.45125,-0.30375 0.83,-0.4875 1.2125,-0.5475 0.39375,-0.0612 0.8,-0.0137 1.29875,0.17 0.23125,0.0863 0.70125,0.30625 0.6425,1.12125 l 0,4.37 1.2275,0 0,-4.8675 c 0.03,-0.19625 -0.13125,-1.1725 -1.25625,-1.5025 -0.43625,-0.15875 -0.86125,-0.2175 -1.24125,-0.2175 -0.38125,0 -0.73125,0.0712 -1.0375,0.16875 -0.6125,0.2075 -1.06625,0.5375 -1.31625,0.78125 l 0,-3.2575 -1.225,0 0,8.895"
         inkscape:connector-curvature="0" />
      <path
         id="path260"
         style="fill:#231f20;fill-opacity:1;fill-rule:evenodd;stroke:none"
         d="m 701.28339,756.86311 1.23,0 0,-1.27 -1.23,0 0,1.27 z m 0,7.625 1.23,0 0,-6.4075 -1.23,0 0,6.4075 z"
         inkscape:connector-curvature="0" />
      <path
         id="path262"
         style="fill:#231f20;fill-opacity:1;fill-rule:nonzero;stroke:none"
         d="m 703.67714,758.08061 0,6.4075 1.23,0 0,-3.40375 c -0.03,-1.72 1.0775,-2.2575 2.1025,-2.2575 0.84625,0 1.55,0.415 1.5325,1.20875 l 0,4.4525 1.23,0 0,-4.97875 c -0.16375,-0.95125 -0.83625,-1.26875 -1.2125,-1.44 -0.19125,-0.0725 -0.70375,-0.1575 -1.25875,-0.16875 -0.55625,-0.0138 -1.1525,0.0587 -1.51875,0.29125 -0.29125,0.1225 -0.61125,0.39125 -0.8475,0.695 l -0.0275,0 0,-0.80625 -1.23,0"
         inkscape:connector-curvature="0" />
      <path
         id="path264"
         style="fill:#231f20;fill-opacity:1;fill-rule:evenodd;stroke:none"
         d="m 715.55464,762.52061 c 0,0.2075 -0.80375,1.2925 -2.4675,1.2575 -0.6725,-0.0125 -1.37375,-0.305 -1.345,-1.09875 0.0163,-0.47625 0.5125,-0.78125 0.73,-0.86625 0.71875,-0.26625 2.09,-0.2425 3.0825,-0.57375 l 0,1.28125 z m 1.27125,-3.39125 c -0.0287,-0.63625 -0.8175,-1.04875 -1.7825,-1.2325 -0.48125,-0.0975 -0.9075,-0.10875 -1.315,-0.10875 -0.70125,0 -1.1825,0.1225 -1.57625,0.28125 -0.80375,0.31625 -1.17,0.88875 -1.2725,1.255 l -0.0425,0.5625 1.155,0 c 0.0288,-0.29375 0.115,-1.185 1.56125,-1.185 0.81875,0 1.8825,0.2075 1.98625,0.65875 l 0,0.75625 c 0,0.3425 -0.4525,0.46375 -0.61375,0.4875 -0.7275,0.14875 -1.445,0.0387 -2.83,0.3775 -0.7925,0.19625 -1.52375,0.61125 -1.61125,1.67375 -0.0987,1.255 0.96625,2.00125 2.675,2.00125 1.00875,0 1.84,-0.5525 2.44125,-0.92875 0.0437,0.4275 0.5825,0.92875 1.13875,0.92875 0.40625,0 0.655,-0.0362 0.94875,-0.11125 l 0,-0.805 c -0.0875,0.0375 -0.19,0.0375 -0.2775,0.0375 -0.3075,0 -0.585,-0.195 -0.585,-0.37875 l 0,-4.27"
         inkscape:connector-curvature="0" />
      <path
         id="path266"
         style="fill:#231f20;fill-opacity:1;fill-rule:nonzero;stroke:none"
         d="m 731.47089,758.33811 c -0.63125,-1.80625 -2.09,-2.915 -4.34,-2.8925 -1.33,0.015 -2.4975,0.54875 -2.9525,0.9175 -1.2375,0.98625 -1.6775,2.4875 -1.695,3.74375 -0.0125,1.25625 0.4575,2.75625 1.695,3.74625 0.455,0.365 1.6225,0.90125 2.9525,0.915 2.42375,0.0238 4.09,-1.5 4.5425,-3.53875 l -1.4025,0 c -0.53875,1.69625 -1.50375,2.51375 -3.0675,2.51375 -0.8475,0 -1.71,-0.28 -2.2925,-0.855 -0.62875,-0.62125 -1.05125,-1.695 -1.02375,-2.78125 -0.0275,-1.085 0.395,-2.15875 1.02375,-2.78 0.5825,-0.5725 1.445,-0.85375 2.2925,-0.85375 1.47625,0 2.38125,0.74375 2.84625,1.865 l 1.42125,0"
         inkscape:connector-curvature="0" />
      <path
         id="path268"
         style="fill:#231f20;fill-opacity:1;fill-rule:evenodd;stroke:none"
         d="m 737.61964,761.32686 c 0,1.05 -0.58375,2.41625 -2.2075,2.41625 -1.60625,0 -2.2025,-1.36625 -2.2025,-2.41625 0,-1.04875 0.59625,-2.4025 2.2025,-2.4025 1.62375,0 2.2075,1.35375 2.2075,2.4025 z m 1.25375,0 c 0,-2.8525 -2.0575,-3.42625 -3.46125,-3.42625 -1.39875,0 -3.46,0.57375 -3.46,3.42625 0,2.85375 2.06125,3.44125 3.46,3.44125 1.40375,0 3.46125,-0.5875 3.46125,-3.44125"
         inkscape:connector-curvature="0" />
      <path
         id="path270"
         style="fill:#231f20;fill-opacity:1;fill-rule:nonzero;stroke:none"
         d="m 739.66714,758.08061 0,6.4075 1.22375,0 0,-3.40375 c -0.0263,-1.72 1.08375,-2.2575 2.105,-2.2575 0.84625,0 1.54875,0.415 1.535,1.20875 l 0,4.4525 1.22375,0 0,-4.97875 c -0.15875,-0.95125 -0.83,-1.26875 -1.21,-1.44 -0.19375,-0.0725 -0.7025,-0.1575 -1.255,-0.16875 -0.555,-0.0138 -1.15875,0.0587 -1.52,0.29125 -0.29375,0.1225 -0.61375,0.39125 -0.85,0.695 l -0.0288,0 0,-0.80625 -1.22375,0"
         inkscape:connector-curvature="0" />
      <path
         id="path272"
         style="fill:#231f20;fill-opacity:1;fill-rule:nonzero;stroke:none"
         d="m 746.35839,762.59561 c 0,0.59875 0.15875,1.745 1.94125,2.0875 0.43875,0.085 0.96125,0.085 1.47625,0.085 0.51,-0.0375 1.00625,-0.12375 1.39875,-0.27 0.80625,-0.30375 1.27125,-0.915 1.375,-1.5375 0.10125,-0.62125 -0.16,-1.25625 -0.835,-1.585 -0.54,-0.28 -1.15,-0.40125 -1.765,-0.48875 -0.7625,-0.15625 -1.3725,-0.2775 -1.7975,-0.47375 -0.4225,-0.185 -0.54125,-0.55125 -0.36375,-0.87875 0.19,-0.34125 0.745,-0.68375 1.49,-0.68375 1.70875,0 1.75125,0.695 1.75125,1.02625 l 1.2,0 c -0.0175,-0.72 -0.3225,-1.97625 -2.85125,-1.97625 -1.5025,0 -2.8175,0.69375 -2.8175,1.915 0,0.9375 0.525,1.3775 1.125,1.56 0.65875,0.2575 1.8825,0.45125 2.8475,0.6475 0.61375,0.17 0.83375,0.4875 0.83375,0.8175 0,0.3175 -0.22,0.6225 -0.4825,0.78 -0.20375,0.1225 -0.58375,0.20875 -0.9675,0.29375 -0.3925,0 -0.785,0 -1.07875,-0.0725 -0.86,-0.22125 -1.2825,-0.6225 -1.32875,-1.24625 l -1.15125,0"
         inkscape:connector-curvature="0" />
      <path
         id="path274"
         style="fill:#231f20;fill-opacity:1;fill-rule:nonzero;stroke:none"
         d="m 754.75714,756.35061 -1.22875,0 0,1.73 -1.0675,0 0,0.94125 1.0675,0 0,4.84375 c 0,0.24375 0.2625,0.82875 1.11125,0.9025 0.48,0.0375 0.8175,0 1.33,-0.0738 l 0,-0.9025 c -0.68625,0.0987 -1.2125,0.0737 -1.2125,-0.32875 l 0,-4.44125 1.2125,0 0,-0.94125 -1.2125,0 0,-1.73"
         inkscape:connector-curvature="0" />
      <path
         id="path276"
         style="fill:#231f20;fill-opacity:1;fill-rule:nonzero;stroke:none"
         d="m 756.41839,764.48811 1.23,0 0,-3.33 c 0,-1.11375 0.42,-1.70875 1.28375,-2.03875 0.33625,-0.0975 0.71625,-0.14625 1.17,-0.14625 l 0,-1.0725 -0.68875,0 c -0.5525,0.035 -1.285,0.45 -1.74,1.1825 l -0.025,0 0,-1.0025 -1.23,0 0,6.4075"
         inkscape:connector-curvature="0" />
      <path
         id="path278"
         style="fill:#231f20;fill-opacity:1;fill-rule:nonzero;stroke:none"
         d="m 766.58839,764.48811 0,-6.4075 -1.22625,0 0,3.47875 c 0,0.82875 -0.17625,1.78125 -1.50375,2.1725 -0.3075,0.07 -0.59875,0.0975 -0.8625,0.07 -0.26375,-0.01 -0.4975,-0.07 -0.68875,-0.1675 -0.3775,-0.1975 -0.5975,-0.55 -0.58125,-1.02625 l 0,-4.5275 -1.22875,0 0,5.10125 c 0.1475,0.69625 0.645,1.185 1.2125,1.43875 0.19,0.0737 0.68875,0.1475 1.22625,0.1475 0.55875,0 1.15625,-0.0738 1.54875,-0.27 0.29375,-0.1225 0.615,-0.38875 0.8475,-0.69625 l 0.03,0 0,0.68625 1.22625,0"
         inkscape:connector-curvature="0" />
      <path
         id="path280"
         style="fill:#231f20;fill-opacity:1;fill-rule:nonzero;stroke:none"
         d="m 772.54964,762.27936 c -0.0463,0.24375 -0.19125,0.56125 -0.36375,0.83 -0.17625,0.34 -0.77625,0.65875 -1.4625,0.6925 -0.67125,0.0275 -1.43125,-0.21875 -1.89875,-0.98625 -0.24625,-0.415 -0.3375,-1.07375 -0.2775,-1.72 0.0575,-0.64625 0.2625,-1.27 0.59875,-1.58625 0.51,-0.4875 1.0375,-0.64625 1.50625,-0.67 0.45,-0.0125 0.83,0.11 1.05,0.20875 0.5125,0.20625 0.68625,0.5225 0.81875,1.19375 l 1.2125,0 c -0.0875,-0.74375 -0.35,-1.45125 -0.95,-1.7675 -0.52625,-0.38 -1.33,-0.5875 -2.1625,-0.57375 -0.83,0.0225 -1.69375,0.2775 -2.31,0.865 -0.77125,0.7325 -1.06625,1.63375 -1.09125,2.475 -0.0312,0.855 0.2175,1.6475 0.52375,2.17375 0.48125,0.84125 1.5625,1.30375 2.6875,1.35375 1.125,0.0375 2.29125,-0.355 2.89,-1.19625 0.2075,-0.2925 0.3825,-0.75625 0.4125,-1.2925 l -1.18375,0"
         inkscape:connector-curvature="0" />
      <path
         id="path282"
         style="fill:#231f20;fill-opacity:1;fill-rule:nonzero;stroke:none"
         d="m 776.16714,756.35061 -1.225,0 0,1.73 -1.07125,0 0,0.94125 1.07125,0 0,4.84375 c 0,0.24375 0.26125,0.82875 1.1075,0.9025 0.48375,0.0375 0.81875,0 1.32875,-0.0738 l 0,-0.9025 c -0.68625,0.0987 -1.21125,0.0737 -1.21125,-0.32875 l 0,-4.44125 1.21125,0 0,-0.94125 -1.21125,0 0,-1.73"
         inkscape:connector-curvature="0" />
      <path
         id="path284"
         style="fill:#231f20;fill-opacity:1;fill-rule:evenodd;stroke:none"
         d="m 778.05714,756.86311 1.22875,0 0,-1.27 -1.22875,0 0,1.27 z m 0,7.625 1.22875,0 0,-6.4075 -1.22875,0 0,6.4075 z"
         inkscape:connector-curvature="0" />
      <path
         id="path286"
         style="fill:#231f20;fill-opacity:1;fill-rule:evenodd;stroke:none"
         d="m 785.62214,761.32686 c 0,1.05 -0.585,2.41625 -2.20875,2.41625 -1.605,0 -2.2025,-1.36625 -2.2025,-2.41625 0,-1.04875 0.5975,-2.4025 2.2025,-2.4025 1.62375,0 2.20875,1.35375 2.20875,2.4025 z m 1.25375,0 c 0,-2.8525 -2.05875,-3.42625 -3.4625,-3.42625 -1.40125,0 -3.46,0.57375 -3.46,3.42625 0,2.85375 2.05875,3.44125 3.46,3.44125 1.40375,0 3.4625,-0.5875 3.4625,-3.44125"
         inkscape:connector-curvature="0" />
      <path
         id="path288"
         style="fill:#231f20;fill-opacity:1;fill-rule:nonzero;stroke:none"
         d="m 787.66839,758.08061 0,6.4075 1.22375,0 0,-3.40375 c -0.0288,-1.72 1.08375,-2.2575 2.105,-2.2575 0.84625,0 1.54625,0.415 1.535,1.20875 l 0,4.4525 1.225,0 0,-4.97875 c -0.15875,-0.95125 -0.83125,-1.26875 -1.21375,-1.44 -0.19,-0.0725 -0.7,-0.1575 -1.2525,-0.16875 -0.55625,-0.0138 -1.1575,0.0587 -1.51875,0.29125 -0.295,0.1225 -0.61375,0.39125 -0.85125,0.695 l -0.0288,0 0,-0.80625 -1.22375,0"
         inkscape:connector-curvature="0" />
      <path
         inkscape:connector-curvature="0"
         id="path298"
         style="fill:#3147a4;fill-opacity:1;fill-rule:nonzero;stroke:none"
         d="m 669.08714,745.27936 -11.1725,-11.17 c -2.3125,-2.32 -5.10375,-2.175 -6.0875,-2.0125 -8.7825,1.44625 -15.485,9.09125 -15.485,18.30375 0,10.2475 8.28875,18.5525 18.51,18.5525 9.98375,0 18.1175,-7.98 18.49625,-17.895 0.004,-0.115 -0.0362,-0.45625 -0.27625,-0.61 -0.29625,-0.18375 -0.885,-0.115 -0.885,-0.115 l -7.16125,0 c 0,0 -0.68,0 -0.89125,0.0975 -0.13875,0.0638 -0.33,0.21 -0.33,0.21 l -8.7275,8.74625 c -0.1425,0.1425 -0.37375,0.1425 -0.51625,0 l -8.775,-8.795 c -0.14375,-0.14125 -0.14375,-0.37375 0,-0.5175 l 8.775,-8.79375 c 0.1425,-0.145 0.37375,-0.145 0.51625,0 l 8.05125,8.06875 c 0,0 0.42,0.37625 0.81625,0.47875 0.365,0.0962 0.90875,-0.27625 0.90875,-0.27625 l 4.23375,-4.2725" />
      <path
         inkscape:connector-curvature="0"
         id="path300"
         style="fill:#3147a4;fill-opacity:1;fill-rule:evenodd;stroke:none"
         d="m 673.16714,739.54686 -5.995,-5.98125 c -6.69375,-6.4675 -14.42875,-2.01375 -14.42875,-2.01375 0,0 3.2875,-1.76875 7.48875,2.665 l 9.9025,9.96625 2.92125,-2.8975 c 0,0 0.3525,-0.44125 0.435,-0.8425 0.075,-0.37375 -0.32375,-0.89625 -0.32375,-0.89625" />
      <path
         id="path302"
         style="fill:#231f20;fill-opacity:1;fill-rule:evenodd;stroke:none"
         d="m 697.19589,748.45436 5.66375,0 0,-9.62875 -5.66375,0 0,9.62875 z m 9.3,-9.67625 0,11.35625 -9.27625,0 0,2.125 -3.6525,0 0,-2.125 -9.2775,0 0,-11.35625 c 0,-0.9025 0.73125,-1.635 1.6325,-1.635 l 7.645,0 0,-1.785 3.62875,0 0,1.785 7.67625,0 c 0.9025,0 1.62375,0.7325 1.62375,1.635 z m -18.54875,9.67625 5.62,0 0,-9.62875 -5.62,0 0,9.62875 z"
         inkscape:connector-curvature="0" />
      <path
         id="path304"
         style="fill:none;stroke:#231f20;stroke-width:0.29999998;stroke-linecap:butt;stroke-linejoin:miter;stroke-miterlimit:3.86400008;stroke-dasharray:none;stroke-opacity:1"
         d="m 697.19589,748.45436 5.66375,0 0,-9.62875 -5.66375,0 0,9.62875 z m 9.3,-9.67625 0,11.35625 -9.27625,0 0,2.125 -3.6525,0 0,-2.125 -9.2775,0 0,-11.35625 c 0,-0.9025 0.73125,-1.635 1.6325,-1.635 l 7.645,0 0,-1.785 3.62875,0 0,1.785 7.67625,0 c 0.9025,0 1.62375,0.7325 1.62375,1.635 z m -18.54875,9.67625 5.62,0 0,-9.62875 -5.62,0 0,9.62875 z"
         inkscape:connector-curvature="0" />
      <path
         id="path306"
         style="fill:#231f20;fill-opacity:1;fill-rule:nonzero;stroke:none"
         d="m 730.23339,747.70811 -4.7975,0 0,-3.96625 4.52125,0 0,-1.6825 -4.52125,0 0,-2.13625 4.77625,0 0,-1.66 -13.18,0 0,1.66 4.67,0 0,2.13625 -4.40625,0 0,1.6825 4.40625,0 0,3.96625 -4.67,0 0,1.63625 13.20125,0 0,-1.63625 z m 2.81125,-12.50375 -18.84125,0 c -0.89625,0 -1.61625,0.73 -1.61625,1.6275 l 0,15.405 22.07125,0 0,-15.405 c 0,-0.8975 -0.71875,-1.6275 -1.61375,-1.6275 z m -16.78375,1.62125 14.775,0 0,13.84 -14.775,0 0,-13.84 z m 12.3575,7.525 -2.52875,0 0.9375,1.6875 c 0,0 0.27,0.64375 0.8125,0.94125 0.4625,0.25125 1.18375,0.195 1.18375,0.195 l 1.14375,0 0,-1.55375 -0.8325,-0.005 -0.71625,-1.265"
         inkscape:connector-curvature="0" />
      <path
         id="path308"
         style="fill:none;stroke:#231f20;stroke-width:0.29999998;stroke-linecap:butt;stroke-linejoin:miter;stroke-miterlimit:3.86400008;stroke-dasharray:none;stroke-opacity:1"
         d="m 730.23339,747.70811 -4.7975,0 0,-3.96625 4.52125,0 0,-1.6825 -4.52125,0 0,-2.13625 4.77625,0 0,-1.66 -13.18,0 0,1.66 4.67,0 0,2.13625 -4.40625,0 0,1.6825 4.40625,0 0,3.96625 -4.67,0 0,1.63625 13.20125,0 0,-1.63625 z m 2.81125,-12.50375 -18.84125,0 c -0.89625,0 -1.61625,0.73 -1.61625,1.6275 l 0,15.405 22.07125,0 0,-15.405 c 0,-0.8975 -0.71875,-1.6275 -1.61375,-1.6275 z m -16.78375,1.62125 14.775,0 0,13.84 -14.775,0 0,-13.84 z m 12.3575,7.525 -2.52875,0 0.9375,1.6875 c 0,0 0.27,0.64375 0.8125,0.94125 0.4625,0.25125 1.18375,0.195 1.18375,0.195 l 1.14375,0 0,-1.55375 -0.8325,-0.005 -0.71625,-1.265 z"
         inkscape:connector-curvature="0" />
      <path
         id="path310"
         style="fill:#231f20;fill-opacity:1;fill-rule:nonzero;stroke:none"
         d="m 763.53089,738.94186 -1.33,0 0,-1.2675 c 0,-0.92875 -0.74625,-1.685 -1.675,-1.685 l -4.55625,-0.003 0,-0.98 -3.41375,0 0,0.98 -4.545,0 0,1.71875 4.545,0 0,1.23625 -5.12,0 0,1.7325 5.12,0 0,1.1775 -4.545,0 0,1.71 4.545,0 0,1.24375 -4.93125,0 0,1.73375 4.93125,0 0,1.18625 -5.38,0 0,1.745 5.37375,0 0,1.2175 -3.5325,0 c -1.37875,0 -2.65875,-0.40625 -3.73875,-1.1 0.69625,-1.00625 1.10625,-2.2225 1.10625,-3.53625 l 0.02,-4.5975 -2.11625,-0.0112 c 1.825,-1.17375 2.7575,-3.2825 2.7575,-5.61375 0,-0.0362 -6.96625,-0.0162 -6.96625,-0.0162 l -0.0187,1.74625 4.035,0 c -0.3125,1.96 -1.82,3.52 -3.7525,3.905 l 0,1.70125 3.5325,0 0,2.50625 c 0,0.7475 -0.2025,1.445 -0.535,2.0625 -0.55375,-0.7875 -0.95,-1.695 -1.14,-2.67625 l -1.89875,0.02 c 0.155,1.57125 0.7525,3.005 1.66375,4.18375 -0.56375,0.385 -1.21125,0.6525 -1.92125,0.7325 l 0,2.34 c 1.43625,0 2.765,-0.485 3.8325,-1.29375 1.315,0.88375 2.89625,1.40625 4.6025,1.40625 l 14.8,0 0.0125,-1.765 -7.3225,0.006 0,-1.2175 6.24125,0 0,-1.745 -6.24125,0 0,-1.18625 6.24125,0 0,-1.73375 -6.24125,0 0,-1.24375 6.3025,0 -0.0138,-2.8875 1.2725,0 0,-1.7325 z m -7.56125,1.7325 2.655,0 0,1.17875 -2.655,0 0,-1.17875 z m 0,-2.96875 2.655,0 0,1.23625 -2.655,0 0,-1.23625 z"
         inkscape:connector-curvature="0" />
      <path
         id="path312"
         style="fill:none;stroke:#231f20;stroke-width:0.30500001;stroke-linecap:butt;stroke-linejoin:miter;stroke-miterlimit:3.86400008;stroke-dasharray:none;stroke-opacity:1"
         d="m 763.53089,738.94186 -1.33,0 0,-1.2675 c 0,-0.92875 -0.74625,-1.685 -1.675,-1.685 l -4.55625,-0.003 0,-0.98 -3.41375,0 0,0.98 -4.545,0 0,1.71875 4.545,0 0,1.23625 -5.12,0 0,1.7325 5.12,0 0,1.1775 -4.545,0 0,1.71 4.545,0 0,1.24375 -4.93125,0 0,1.73375 4.93125,0 0,1.18625 -5.38,0 0,1.745 5.37375,0 0,1.2175 -3.5325,0 c -1.37875,0 -2.65875,-0.40625 -3.73875,-1.1 0.69625,-1.00625 1.10625,-2.2225 1.10625,-3.53625 l 0.02,-4.5975 -2.11625,-0.0112 c 1.825,-1.17375 2.7575,-3.2825 2.7575,-5.61375 0,-0.0362 -6.96625,-0.0162 -6.96625,-0.0162 l -0.0187,1.74625 4.035,0 c -0.3125,1.96 -1.82,3.52 -3.7525,3.905 l 0,1.70125 3.5325,0 0,2.50625 c 0,0.7475 -0.2025,1.445 -0.535,2.0625 -0.55375,-0.7875 -0.95,-1.695 -1.14,-2.67625 l -1.89875,0.02 c 0.155,1.57125 0.7525,3.005 1.66375,4.18375 -0.56375,0.385 -1.21125,0.6525 -1.92125,0.7325 l 0,2.34 c 1.43625,0 2.765,-0.485 3.8325,-1.29375 1.315,0.88375 2.89625,1.40625 4.6025,1.40625 l 14.8,0 0.0125,-1.765 -7.3225,0.006 0,-1.2175 6.24125,0 0,-1.745 -6.24125,0 0,-1.18625 6.24125,0 0,-1.73375 -6.24125,0 0,-1.24375 6.3025,0 -0.0138,-2.8875 1.2725,0 0,-1.7325 z m -7.56125,1.7325 2.655,0 0,1.17875 -2.655,0 0,-1.17875 z m 0,-2.96875 2.655,0 0,1.23625 -2.655,0 0,-1.23625 z"
         inkscape:connector-curvature="0" />
      <path
         id="path314"
         style="fill:#231f20;fill-opacity:1;fill-rule:nonzero;stroke:#231f20;stroke-width:0.29999998;stroke-linecap:butt;stroke-linejoin:miter;stroke-miterlimit:3.86400008;stroke-dasharray:none;stroke-opacity:1"
         d="m 834.61589,735.51811 14.08625,0 0,1.75 -14.08625,0 0,-1.75 z"
         inkscape:connector-curvature="0" />
      <path
         id="path316"
         style="fill:#231f20;fill-opacity:1;fill-rule:nonzero;stroke:#231f20;stroke-width:0.29999998;stroke-linecap:butt;stroke-linejoin:miter;stroke-miterlimit:3.86400008;stroke-dasharray:none;stroke-opacity:1"
         d="m 831.65964,742.75811 -0.0125,9.705 -3.42,0 0,-7.07875 c -0.63875,0.3825 -1.3325,0.7225 -2.01875,1.02 l -1.425,-2.235 c 3.10625,-1.485 6.06375,-4.02875 7.465,-6.8075 l 2.0975,1.8275 c -0.745,1.27375 -1.6575,2.53 -2.68625,3.56875 z"
         inkscape:connector-curvature="0" />
      <path
         id="path318"
         style="fill:#231f20;fill-opacity:1;fill-rule:nonzero;stroke:#231f20;stroke-width:0.29999998;stroke-linecap:butt;stroke-linejoin:miter;stroke-miterlimit:3.86400008;stroke-dasharray:none;stroke-opacity:1"
         d="m 843.56589,752.45186 c 1.67375,0 3.015,-1.35625 3.015,-3.03375 l 0.005,-6.745 2.63625,0 0,-1.74875 -15.465,0 0,1.74875 9.11375,0 0,7.045 c 0,0.55125 -0.4475,1.00125 -0.99625,1.00125 l -4.04125,0 0,1.73625 5.7325,-0.004 z"
         inkscape:connector-curvature="0" />
      <path
         id="path320"
         style="fill:#231f20;fill-opacity:1;fill-rule:nonzero;stroke:#231f20;stroke-width:0.29999998;stroke-linecap:butt;stroke-linejoin:miter;stroke-miterlimit:3.86400008;stroke-dasharray:none;stroke-opacity:1"
         d="m 831.46464,736.03186 c -1.355,2.67625 -3.48625,4.89375 -6.09125,6.35625 l -1.31375,-2.3125 c 2.225,-1.49625 4.01375,-3.17 5.4175,-5.815 l 1.9875,1.77125 z"
         inkscape:connector-curvature="0" />
      <path
         id="path322"
         style="fill:#231f20;fill-opacity:1;fill-rule:evenodd;stroke:none"
         d="m 776.28339,745.92811 c 0,0 -1.44,1.395 -2.98,2.45125 l -0.0125,-8.95 -6.26125,0.04 0,1.7075 2.77,0 -10e-4,8.80625 c -0.97375,0.305 -1.75375,0.49 -1.75375,0.49 l 1.7575,2.18625 c 0,0 1.7325,-0.42625 3.56,-1.36125 1.7625,-0.9 2.92125,-2.075 2.92125,-2.075 l 0,-3.295 z m 5.18125,-6.92125 0.005,-2.11625 4.91625,-0.0175 0,2.13375 c 0.025,0.78625 -0.22375,2.78125 3.195,2.79125 l 2.135,0 0,-1.605 -0.56375,-0.015 c -1.35625,0.0888 -1.23625,-0.485 -1.235,-0.88125 l -10e-4,-2.52875 c 0,-0.885 -0.72875,-1.6025 -1.63375,-1.6025 l -1.535,0 -8.735,-0.004 0.009,4.13625 c 0,0.32625 0.12375,0.97 -1.23375,0.88125 l -0.5975,-0.0187 0,1.6375 2.075,0 c 3.5475,0.19875 3.16875,-2.005 3.2,-2.79125 z m 5.92875,9.72125 c 1.59375,-1.11125 3.025,-2.44125 4.25,-3.955 l 0.01,-2.1775 -15.66625,0 0,1.96125 11.71125,0 c -1.07375,1.08875 -2.2925,2.02875 -3.61625,2.81125 -1.2475,-0.635 -2.43375,-1.37625 -3.5375,-2.24375 l -4.21125,-0.009 c 1.33125,1.43875 2.855,2.69875 4.52375,3.75125 -1.58875,0.54625 -3.28,0.87375 -5.03625,0.94125 l 0.002,2.55625 c 2.97375,0 5.7825,-0.64375 8.31625,-1.79 2.60375,1.09375 5.45,1.71875 8.43375,1.75625 l 0,-2.5975 c -1.80125,-0.14125 -3.5325,-0.48375 -5.18,-1.005 z m -19.13375,-11.29875 6.95375,0 0,-1.84625 -6.95375,0 0,1.84625 z"
         inkscape:connector-curvature="0" />
      <path
         id="path324"
         style="fill:none;stroke:#231f20;stroke-width:0.29999998;stroke-linecap:butt;stroke-linejoin:miter;stroke-miterlimit:3.86400008;stroke-dasharray:none;stroke-opacity:1"
         d="m 776.28339,745.92811 c 0,0 -1.44,1.395 -2.98,2.45125 l -0.0125,-8.95 -6.26125,0.04 0,1.7075 2.77,0 -10e-4,8.80625 c -0.97375,0.305 -1.75375,0.49 -1.75375,0.49 l 1.7575,2.18625 c 0,0 1.7325,-0.42625 3.56,-1.36125 1.7625,-0.9 2.92125,-2.075 2.92125,-2.075 l 0,-3.295 z m 5.18125,-6.92125 0.005,-2.11625 4.91625,-0.0175 0,2.13375 c 0.025,0.78625 -0.22375,2.78125 3.195,2.79125 l 2.135,0 0,-1.605 -0.56375,-0.015 c -1.35625,0.0888 -1.23625,-0.485 -1.235,-0.88125 l -10e-4,-2.52875 c 0,-0.885 -0.72875,-1.6025 -1.63375,-1.6025 l -1.535,0 -8.735,-0.004 0.009,4.13625 c 0,0.32625 0.12375,0.97 -1.23375,0.88125 l -0.5975,-0.0187 0,1.6375 2.075,0 c 3.5475,0.19875 3.16875,-2.005 3.2,-2.79125 z m 5.92875,9.72125 c 1.59375,-1.11125 3.025,-2.44125 4.25,-3.955 l 0.01,-2.1775 -15.66625,0 0,1.96125 11.71125,0 c -1.07375,1.08875 -2.2925,2.02875 -3.61625,2.81125 -1.2475,-0.635 -2.43375,-1.37625 -3.5375,-2.24375 l -4.21125,-0.009 c 1.33125,1.43875 2.855,2.69875 4.52375,3.75125 -1.58875,0.54625 -3.28,0.87375 -5.03625,0.94125 l 0.002,2.55625 c 2.97375,0 5.7825,-0.64375 8.31625,-1.79 2.60375,1.09375 5.45,1.71875 8.43375,1.75625 l 0,-2.5975 c -1.80125,-0.14125 -3.5325,-0.48375 -5.18,-1.005 z m -19.13375,-11.29875 6.95375,0 0,-1.84625 -6.95375,0 0,1.84625 z"
         inkscape:connector-curvature="0" />
      <path
         id="path326"
         style="fill:#231f20;fill-opacity:1;fill-rule:evenodd;stroke:none"
         d="m 813.71089,748.96686 c -0.66125,0.50875 -2.15875,0.9 -2.7675,0.93125 l 0.006,-6.20375 8.98125,0 0.01,-6.93 c 0,-0.92 -0.7375,-1.66375 -1.6525,-1.66375 l -10.56625,0.005 -0.002,14.98375 -0.68375,0 0,2.3575 1.68375,0.002 c 1.66375,0 3.46,-0.32375 4.99625,-0.9125 l -0.005,-2.57 z m 4.0775,-0.02 c 1.2325,-1.175 2.22375,-2.595 2.905,-4.17875 l -2.5525,-0.0137 c -0.5275,1.005 -1.2325,1.90875 -2.07625,2.67625 -0.0725,-0.0862 -0.35375,-0.45625 -0.42375,-0.545 -0.4575,-0.61625 -0.7725,-1.26375 -1.02,-2.09375 l -2.62375,0 c 0.275,0.88125 0.81375,2.16875 1.23125,2.87125 1.86625,3.0025 4.68875,4.74 7.56625,4.79375 l 0,-2.42125 c -0.99,-0.0338 -2.055,-0.4625 -3.00625,-1.08875 z m -6.86125,-6.95875 5.70875,0 0,-1.715 -5.70875,0 0,1.715 z m 0,-3.43375 5.70875,0 0,-1.745 -5.70875,0 0,1.745 z"
         inkscape:connector-curvature="0" />
      <path
         id="path328"
         style="fill:none;stroke:#231f20;stroke-width:0.29999998;stroke-linecap:butt;stroke-linejoin:miter;stroke-miterlimit:3.86400008;stroke-dasharray:none;stroke-opacity:1"
         d="m 813.71089,748.96686 c -0.66125,0.50875 -2.15875,0.9 -2.7675,0.93125 l 0.006,-6.20375 8.98125,0 0.01,-6.93 c 0,-0.92 -0.7375,-1.66375 -1.6525,-1.66375 l -10.56625,0.005 -0.002,14.98375 -0.68375,0 0,2.3575 1.68375,0.002 c 1.66375,0 3.46,-0.32375 4.99625,-0.9125 l -0.005,-2.57 z m 4.0775,-0.02 c 1.2325,-1.175 2.22375,-2.595 2.905,-4.17875 l -2.5525,-0.0137 c -0.5275,1.005 -1.2325,1.90875 -2.07625,2.67625 -0.0725,-0.0862 -0.35375,-0.45625 -0.42375,-0.545 -0.4575,-0.61625 -0.7725,-1.26375 -1.02,-2.09375 l -2.62375,0 c 0.275,0.88125 0.81375,2.16875 1.23125,2.87125 1.86625,3.0025 4.68875,4.74 7.56625,4.79375 l 0,-2.42125 c -0.99,-0.0338 -2.055,-0.4625 -3.00625,-1.08875 z m -6.86125,-6.95875 5.70875,0 0,-1.715 -5.70875,0 0,1.715 z m 0,-3.43375 5.70875,0 0,-1.745 -5.70875,0 0,1.745 z"
         inkscape:connector-curvature="0" />
      <path
         id="path330"
         style="fill:#231f20;fill-opacity:1;fill-rule:nonzero;stroke:#231f20;stroke-width:0.29999998;stroke-linecap:butt;stroke-linejoin:miter;stroke-miterlimit:3.86400008;stroke-dasharray:none;stroke-opacity:1"
         d="m 802.63839,749.54186 0,-4.0375 3.97,0 0,-1.72 -3.97,0 0,-1.945 3.65125,0 0,-1.7325 -6.66,0.0138 c 0.46875,-0.505 0.915,-1.105 1.31875,-1.67125 l 5.60125,-0.025 0,-1.6525 -4.55,0 c 0.28375,-0.52625 0.57375,-1.07625 0.8,-1.63625 l -2.54625,-0.9075 c -0.9225,2.5725 -2.81,4.8375 -4.865,6.0825 l 1.685,2.0025 c 0.24875,-0.17 0.51375,-0.315 0.7525,-0.50125 l 1.90125,0 0,1.9725 -2.50625,0 0,1.72 2.55125,0 -0.01,4.82875 c -0.56875,0.09 -1.14125,0.145 -1.73375,0.16375 l 1.6875,2.11125 c 2.55125,-0.24125 4.89125,-1.19375 6.8225,-2.65875 l 0.005,-2.80875 c -1.14625,1.01 -2.46375,1.82625 -3.905,2.40125 z"
         inkscape:connector-curvature="0" />
    </g>
  </g>
</svg>
