<?xml version="1.0" encoding="utf-8"?>
<!-- Generator: Adobe Illustrator 16.0.0, SVG Export Plug-In . SVG Version: 6.00 Build 0)  -->
<!DOCTYPE svg PUBLIC "-//W3C//DTD SVG 1.1//EN" "http://www.w3.org/Graphics/SVG/1.1/DTD/svg11.dtd">
<svg version="1.1" id="图层_1" xmlns="http://www.w3.org/2000/svg" xmlns:xlink="http://www.w3.org/1999/xlink" x="0px" y="0px"
	 width="595.28px" height="595.28px" viewBox="0 0 595.28 595.28" enable-background="new 0 0 595.28 595.28" xml:space="preserve">
<g>
	<g>
		<defs>
			<path id="SVGID_1_" d="M56.329,181.251c1.928,36.151,29.127,57.6,29.127,57.6c43.893,42.657,150.03,96.648,174.672,108.943
				c0.347,0.053,1.624,0.506,2.394-0.453c0,0,1.013-0.824,0.492-2.128C195.436,197.616,103.003,85.705,103.003,85.705
				S52.723,133.418,56.329,181.251"/>
		</defs>
		<clipPath id="SVGID_2_">
			<use xlink:href="#SVGID_1_"  overflow="visible"/>
		</clipPath>
		
			<radialGradient id="SVGID_3_" cx="-319.4336" cy="741.3242" r="27.2433" gradientTransform="matrix(-8.8 12.0641 12.0641 8.8 -11368.6572 -2590.4126)" gradientUnits="userSpaceOnUse">
			<stop  offset="0" style="stop-color:#F4B59E"/>
			<stop  offset="0.0154" style="stop-color:#F3B198"/>
			<stop  offset="0.427" style="stop-color:#DE2726"/>
			<stop  offset="0.6794" style="stop-color:#DD2626"/>
			<stop  offset="0.7742" style="stop-color:#D82526"/>
			<stop  offset="0.8425" style="stop-color:#CF2325"/>
			<stop  offset="0.898" style="stop-color:#C12124"/>
			<stop  offset="0.9458" style="stop-color:#B01F23"/>
			<stop  offset="0.9875" style="stop-color:#9A1E22"/>
			<stop  offset="1" style="stop-color:#931D22"/>
		</radialGradient>
		<polygon clip-path="url(#SVGID_2_)" fill="url(#SVGID_3_)" points="388.55,176.899 190.314,448.65 -72.295,257.091 
			125.93,-14.658 		"/>
	</g>
	<g>
		<defs>
			<path id="SVGID_4_" d="M67.094,388.455c19.144,34.17,51.491,60.699,85.06,52.451c23.217-5.693,75.787-42.417,93.112-54.871
				h-0.027c1.318-1.224,0.85-2.184,0.85-2.184c-0.438-1.544-2.287-1.544-2.287-1.544v-0.053L67.094,388.455z"/>
		</defs>
		<clipPath id="SVGID_5_">
			<use xlink:href="#SVGID_4_"  overflow="visible"/>
		</clipPath>
		
			<radialGradient id="SVGID_6_" cx="-319.4487" cy="741.3242" r="27.2618" gradientTransform="matrix(-8.8 12.0641 12.0641 8.8 -11368.6572 -2590.4126)" gradientUnits="userSpaceOnUse">
			<stop  offset="0" style="stop-color:#F4B59E"/>
			<stop  offset="0.0154" style="stop-color:#F3B198"/>
			<stop  offset="0.427" style="stop-color:#DE2726"/>
			<stop  offset="0.6794" style="stop-color:#DD2626"/>
			<stop  offset="0.7742" style="stop-color:#D82526"/>
			<stop  offset="0.8425" style="stop-color:#CF2325"/>
			<stop  offset="0.898" style="stop-color:#C12124"/>
			<stop  offset="0.9458" style="stop-color:#B01F23"/>
			<stop  offset="0.9875" style="stop-color:#9A1E22"/>
			<stop  offset="1" style="stop-color:#931D22"/>
		</radialGradient>
		<polygon clip-path="url(#SVGID_5_)" fill="url(#SVGID_6_)" points="278.395,405.46 184.22,534.575 35.24,425.898 129.417,296.78 
					"/>
	</g>
	<g>
		<defs>
			<path id="SVGID_7_" d="M24.795,309.074c19.186,40.504,55.749,52.798,55.749,52.798c16.925,6.918,33.85,7.397,33.85,7.397
				c2.648,0.48,105.074,0.054,132.534-0.053c1.173-0.054,1.81-1.17,1.81-1.17c0.865-1.438-0.637-2.664-0.637-2.664
				C170.477,313.015,20.059,232.609,20.059,232.609C6.407,274.961,24.795,309.074,24.795,309.074"/>
		</defs>
		<clipPath id="SVGID_8_">
			<use xlink:href="#SVGID_7_"  overflow="visible"/>
		</clipPath>
		
			<radialGradient id="SVGID_9_" cx="-319.438" cy="741.3398" r="27.2567" gradientTransform="matrix(-8.8 12.0641 12.0641 8.8 -11368.6572 -2590.4126)" gradientUnits="userSpaceOnUse">
			<stop  offset="0" style="stop-color:#F4B59E"/>
			<stop  offset="0.0154" style="stop-color:#F3B198"/>
			<stop  offset="0.427" style="stop-color:#DE2726"/>
			<stop  offset="0.6794" style="stop-color:#DD2626"/>
			<stop  offset="0.7742" style="stop-color:#D82526"/>
			<stop  offset="0.8425" style="stop-color:#CF2325"/>
			<stop  offset="0.898" style="stop-color:#C12124"/>
			<stop  offset="0.9458" style="stop-color:#B01F23"/>
			<stop  offset="0.9875" style="stop-color:#9A1E22"/>
			<stop  offset="1" style="stop-color:#931D22"/>
		</radialGradient>
		<polygon clip-path="url(#SVGID_8_)" fill="url(#SVGID_9_)" points="314.894,280.244 165.142,485.561 -58.896,322.115 
			90.856,116.826 		"/>
	</g>
	<g>
		<defs>
			<path id="SVGID_10_" d="M256.935,9.824c-9.127,1.41-24.882,4.976-24.882,4.976c-46.808,12.161-57.852,54.578-57.852,54.578
				c-8.583,26.746,0.228,56.083,0.228,56.083c15.58,69.269,92.445,183.136,108.97,207.085c1.17,1.17,2.088,0.64,2.088,0.64
				c1.769-0.427,1.612-2.184,1.612-2.184l0.053,0.054C311.38,88.845,265.224,16.171,260.807,9.824H256.935z"/>
		</defs>
		<clipPath id="SVGID_11_">
			<use xlink:href="#SVGID_10_"  overflow="visible"/>
		</clipPath>
		
			<radialGradient id="SVGID_12_" cx="-319.4331" cy="741.3359" r="27.2425" gradientTransform="matrix(-8.8 12.0641 12.0641 8.8 -11368.6572 -2590.4126)" gradientUnits="userSpaceOnUse">
			<stop  offset="0" style="stop-color:#F4B59E"/>
			<stop  offset="0.0154" style="stop-color:#F3B198"/>
			<stop  offset="0.427" style="stop-color:#DE2726"/>
			<stop  offset="0.6794" style="stop-color:#DD2626"/>
			<stop  offset="0.7742" style="stop-color:#D82526"/>
			<stop  offset="0.8425" style="stop-color:#CF2325"/>
			<stop  offset="0.898" style="stop-color:#C12124"/>
			<stop  offset="0.9458" style="stop-color:#B01F23"/>
			<stop  offset="0.9875" style="stop-color:#9A1E22"/>
			<stop  offset="1" style="stop-color:#931D22"/>
		</radialGradient>
		<polygon clip-path="url(#SVGID_11_)" fill="url(#SVGID_12_)" points="465.59,122.309 260.753,403.119 11.41,221.222 
			216.248,-59.577 		"/>
	</g>
	<g>
		<defs>
			<path id="SVGID_13_" d="M344.192,9.824c-4.446,6.347-50.881,79.047-26.57,321.393c0.21,1.597,1.356,1.943,1.356,1.943
				c1.688,0.663,2.539-0.934,2.539-0.934h0.053c16.952-24.535,93.353-137.789,108.894-206.765c0,0,8.407-33.438,0.293-56.083
				c0,0-11.524-43.096-58.438-54.498c0,0-11.654-2.94-24.749-5.056H344.192z"/>
		</defs>
		<clipPath id="SVGID_14_">
			<use xlink:href="#SVGID_13_"  overflow="visible"/>
		</clipPath>
		
			<radialGradient id="SVGID_15_" cx="-319.4409" cy="741.3486" r="27.2437" gradientTransform="matrix(-8.8 12.0641 12.0641 8.8 -11368.6572 -2590.4126)" gradientUnits="userSpaceOnUse">
			<stop  offset="0" style="stop-color:#F4B59E"/>
			<stop  offset="0.0154" style="stop-color:#F3B198"/>
			<stop  offset="0.427" style="stop-color:#DE2726"/>
			<stop  offset="0.6794" style="stop-color:#DD2626"/>
			<stop  offset="0.7742" style="stop-color:#D82526"/>
			<stop  offset="0.8425" style="stop-color:#CF2325"/>
			<stop  offset="0.898" style="stop-color:#C12124"/>
			<stop  offset="0.9458" style="stop-color:#B01F23"/>
			<stop  offset="0.9875" style="stop-color:#9A1E22"/>
			<stop  offset="1" style="stop-color:#931D22"/>
		</radialGradient>
		<polygon clip-path="url(#SVGID_14_)" fill="url(#SVGID_15_)" points="593.135,122.348 388.34,403.146 139.036,221.313 
			343.873,-59.484 		"/>
	</g>
	<g>
		<defs>
			<path id="SVGID_16_" d="M360.824,382.414c0,0-1.57,0.214-1.971,1.331c0,0-0.373,1.543,0.641,2.396l0,0
				c16.868,12.134,68.176,48.031,92.898,54.951c0,0,45.69,15.592,85.338-52.611l-176.906-6.12V382.414z"/>
		</defs>
		<clipPath id="SVGID_17_">
			<use xlink:href="#SVGID_16_"  overflow="visible"/>
		</clipPath>
		
			<radialGradient id="SVGID_18_" cx="-319.4409" cy="741.3574" r="27.2326" gradientTransform="matrix(-8.8 12.0641 12.0641 8.8 -11368.6572 -2590.4126)" gradientUnits="userSpaceOnUse">
			<stop  offset="0" style="stop-color:#F4B59E"/>
			<stop  offset="0.0154" style="stop-color:#F3B198"/>
			<stop  offset="0.427" style="stop-color:#DE2726"/>
			<stop  offset="0.6794" style="stop-color:#DD2626"/>
			<stop  offset="0.7742" style="stop-color:#D82526"/>
			<stop  offset="0.8425" style="stop-color:#CF2325"/>
			<stop  offset="0.898" style="stop-color:#C12124"/>
			<stop  offset="0.9458" style="stop-color:#B01F23"/>
			<stop  offset="0.9875" style="stop-color:#9A1E22"/>
			<stop  offset="1" style="stop-color:#931D22"/>
		</radialGradient>
		<polygon clip-path="url(#SVGID_17_)" fill="url(#SVGID_18_)" points="573.123,408.174 475.461,542.025 323.076,430.846 
			420.723,296.994 		"/>
	</g>
	<g>
		<defs>
			<path id="SVGID_19_" d="M356.938,365.227v0.05c0,0-1.438,0.906-0.904,2.557c0,0,0.718,1.33,1.784,1.33
				c27.806,0.08,133.105,0.187,135.742-0.267c0,0,13.571-0.586,30.416-7.024c0,0,37.44-11.894,56.919-54.447
				c0,0,8.78-17.535,8.994-42.284v-1.982c-0.107-9.486-1.464-19.97-5.107-30.896C584.781,232.263,434.588,312.908,356.938,365.227"
				/>
		</defs>
		<clipPath id="SVGID_20_">
			<use xlink:href="#SVGID_19_"  overflow="visible"/>
		</clipPath>
		
			<radialGradient id="SVGID_21_" cx="-319.4419" cy="741.3281" r="27.2689" gradientTransform="matrix(-8.8 12.0641 12.0641 8.8 -11368.6572 -2590.4126)" gradientUnits="userSpaceOnUse">
			<stop  offset="0" style="stop-color:#F4B59E"/>
			<stop  offset="0.0154" style="stop-color:#F3B198"/>
			<stop  offset="0.427" style="stop-color:#DE2726"/>
			<stop  offset="0.6794" style="stop-color:#DD2626"/>
			<stop  offset="0.7742" style="stop-color:#D82526"/>
			<stop  offset="0.8425" style="stop-color:#CF2325"/>
			<stop  offset="0.898" style="stop-color:#C12124"/>
			<stop  offset="0.9458" style="stop-color:#B01F23"/>
			<stop  offset="0.9875" style="stop-color:#9A1E22"/>
			<stop  offset="1" style="stop-color:#931D22"/>
		</radialGradient>
		<polygon clip-path="url(#SVGID_20_)" fill="url(#SVGID_21_)" points="655.164,279.87 508.487,480.956 290.225,321.742 
			436.904,120.659 		"/>
	</g>
	<g>
		<defs>
			<path id="SVGID_22_" d="M342.195,344.494h0.027c0,0-0.759,1.73,0.491,2.848c0,0,1.224,0.906,2.395,0.239
				c25.294-12.641,130.619-66.221,174.29-108.729c0,0,27.593-22.207,29.109-57.855c3.167-49.456-46.647-95.292-46.647-95.292
				S409.682,197.243,342.195,344.494"/>
		</defs>
		<clipPath id="SVGID_23_">
			<use xlink:href="#SVGID_22_"  overflow="visible"/>
		</clipPath>
		
			<radialGradient id="SVGID_24_" cx="-319.4277" cy="741.3271" r="27.2581" gradientTransform="matrix(-8.8 12.0641 12.0641 8.8 -11368.6572 -2590.4126)" gradientUnits="userSpaceOnUse">
			<stop  offset="0" style="stop-color:#F4B59E"/>
			<stop  offset="0.0154" style="stop-color:#F3B198"/>
			<stop  offset="0.427" style="stop-color:#DE2726"/>
			<stop  offset="0.6794" style="stop-color:#DD2626"/>
			<stop  offset="0.7742" style="stop-color:#D82526"/>
			<stop  offset="0.8425" style="stop-color:#CF2325"/>
			<stop  offset="0.898" style="stop-color:#C12124"/>
			<stop  offset="0.9458" style="stop-color:#B01F23"/>
			<stop  offset="0.9875" style="stop-color:#9A1E22"/>
			<stop  offset="1" style="stop-color:#931D22"/>
		</radialGradient>
		<polygon clip-path="url(#SVGID_23_)" fill="url(#SVGID_24_)" points="676.64,176.888 478.655,448.304 216.473,257.065 
			414.469,-14.365 		"/>
	</g>
	<polygon fill="#040000" points="82.674,491.944 82.674,529.414 35.771,529.414 35.771,491.944 14.736,491.944 14.736,584.499 
		35.771,584.499 35.771,545.859 82.674,545.859 82.674,584.499 103.788,584.499 103.788,491.944 	"/>
	<g>
		<defs>
			<rect id="SVGID_25_" x="14.736" y="9.824" width="575.152" height="575.632"/>
		</defs>
		<clipPath id="SVGID_26_">
			<use xlink:href="#SVGID_25_"  overflow="visible"/>
		</clipPath>
		<path clip-path="url(#SVGID_26_)" fill="#040000" d="M141.975,547.402c0,16.339,5.149,23.126,22.595,23.126
			c17.443,0,22.417-6.787,22.417-23.126v-55.458h21.09v55.938c0,11.814-1.384,19.958-5.881,24.853
			c-8.25,9.074-20.184,12.721-37.626,12.721c-17.446,0-29.619-3.646-37.802-12.721c-4.604-4.947-5.721-13.092-5.721-24.853v-55.938
			h20.927V547.402z"/>
		<path clip-path="url(#SVGID_26_)" fill="#040000" d="M276.932,491.944l42.646,92.555h-23.445l-9.234-22.035h-43.454l-8.941,22.035
			h-22.328l42.405-92.555H276.932z M250.254,545.966h29.833l-15.183-35.5L250.254,545.966z"/>
		<polygon clip-path="url(#SVGID_26_)" fill="#040000" points="329.116,491.944 352.307,563.104 371.813,491.944 396.667,491.944 
			419.1,563.104 440.734,491.944 462.316,491.944 431.394,584.473 405.555,584.473 384.213,515.416 365.508,584.473 
			339.879,584.473 306.524,491.944 		"/>
		<path clip-path="url(#SVGID_26_)" fill="#040000" d="M490.683,529.574h58.278v16.125H490.55
			c0.133,16.604,7.267,22.672,23.845,22.672h34.566v16.128h-35.579c-12.108,0-21.473-0.96-31.214-8.144
			c-10.324-7.558-15.327-19.692-15.327-36.457c0-32.706,14.928-47.954,47.101-47.954h35.02v16.182h-34.566
			C499.2,508.126,491.563,515.043,490.683,529.574"/>
		<rect x="567.536" y="491.944" clip-path="url(#SVGID_26_)" fill="#040000" width="21.979" height="92.501"/>
	</g>
</g>
</svg>
