<?xml version="1.0" encoding="utf-8"?>
<!-- Generator: Adobe Illustrator 16.0.0, SVG Export Plug-In . SVG Version: 6.00 Build 0)  -->
<!DOCTYPE svg PUBLIC "-//W3C//DTD SVG 1.1//EN" "http://www.w3.org/Graphics/SVG/1.1/DTD/svg11.dtd">
<svg version="1.1" id="图层_1" xmlns="http://www.w3.org/2000/svg" xmlns:xlink="http://www.w3.org/1999/xlink" x="0px" y="0px"
	 width="595.28px" height="595.28px" viewBox="0 0 595.28 595.28" enable-background="new 0 0 595.28 595.28" xml:space="preserve">
<g>
	<defs>
		<rect id="SVGID_1_" x="56.816" y="20.392" width="480.511" height="556.022"/>
	</defs>
	<clipPath id="SVGID_2_">
		<use xlink:href="#SVGID_1_"  overflow="visible"/>
	</clipPath>
	<path clip-path="url(#SVGID_2_)" fill="#040000" d="M56.803,546.362v-51.026c0-3.569,2.901-6.445,6.459-6.445h34.142
		c1.215,0,2.207-0.991,2.207-2.183v-13.19c0-1.189,0.966-2.182,2.182-2.182h11.157c1.215,0,2.207,0.992,2.207,2.182v13.19
		c0,1.191,0.991,2.183,2.206,2.183h34.204c3.545,0,6.446,2.876,6.446,6.445v51.026c0,3.521-2.9,6.447-6.446,6.447h-34.204
		c-1.215,0-2.206,0.991-2.206,2.183v19.239c0,1.19-0.992,2.183-2.207,2.183h-11.157c-1.215,0-2.182-0.992-2.182-2.183v-19.239
		c0-1.191-0.992-2.183-2.207-2.183H63.262C59.704,552.81,56.803,549.884,56.803,546.362 M73.54,501.387v38.927h23.864
		c1.215,0,2.207-0.992,2.207-2.183v-34.563c0-1.19-0.992-2.182-2.207-2.182H73.54z M139.244,501.387h-21.881
		c-1.215,0-2.206,0.991-2.206,2.182v34.563c0,1.19,0.991,2.183,2.206,2.183h21.881c1.227,0,2.207-0.992,2.207-2.183v-34.563
		C141.451,502.378,140.471,501.387,139.244,501.387"/>
	<path clip-path="url(#SVGID_2_)" fill="#040000" d="M446.878,520.726c-3.967-3.024-13.116-9.669-17.331-12.894
		c-1.092-0.792-1.19-2.33-0.273-3.271l7.611-7.885c0.795-0.843,2.084-0.942,2.977-0.199c6.396,5.009,11.306,10.019,15.67,13.984
		c0.893,0.794,0.991,2.183,0.198,3.075l-5.852,6.843C449.109,521.271,447.796,521.42,446.878,520.726 M452.407,492.511
		c-4.761-4.314-9.621-7.34-14.753-11.01c-1.265-0.941-1.413-2.776-0.298-3.917l6.695-6.893c0.966-0.942,2.454-1.041,3.546-0.198
		c4.164,3.223,8.156,7.289,13.785,12.148c1.09,0.992,1.239,2.678,0.248,3.77l-5.505,5.95
		C455.135,493.452,453.498,493.452,452.407,492.511 M461.233,569.77v-73.987c0-3.619,2.95-6.595,6.596-6.595h23.604v-17.306
		c0-1.339,1.042-2.33,2.307-2.33h10.686c1.289,0,2.331,0.991,2.331,2.33v17.306h24.001c3.62,0,6.596,2.976,6.596,6.595v73.987
		c0,3.619-2.976,6.546-6.596,6.546h-62.928C464.184,576.315,461.233,573.389,461.233,569.77 M476.358,503.816v20.232
		c0,1.686,1.363,3.074,3.074,3.074h10.661c1.736,0,3.124-1.389,3.124-3.074v-20.232c0-1.687-1.388-3.075-3.124-3.075h-10.661
		C477.722,500.741,476.358,502.13,476.358,503.816 M476.358,540.76v21.62c0,1.736,1.363,3.124,3.074,3.124h10.661
		c1.736,0,3.124-1.388,3.124-3.124v-21.62c0-1.687-1.388-3.075-3.124-3.075h-10.661C477.722,537.685,476.358,539.073,476.358,540.76
		 M518.509,500.741h-9.72c-1.736,0-3.124,1.389-3.124,3.075v20.232c0,1.686,1.388,3.074,3.124,3.074h9.72
		c1.711,0,3.123-1.389,3.123-3.074v-20.232C521.632,502.13,520.22,500.741,518.509,500.741 M505.665,540.76v21.62
		c0,1.736,1.388,3.124,3.124,3.124h9.72c1.711,0,3.123-1.388,3.123-3.124v-21.62c0-1.687-1.412-3.075-3.123-3.075h-9.72
		C507.053,537.685,505.665,539.073,505.665,540.76"/>
	<path clip-path="url(#SVGID_2_)" fill="#040000" d="M441.844,575.074l-11.082-5.305c-1.066-0.547-1.463-1.886-0.794-2.877
		c2.133-3.272,6.521-10.463,9.348-18.1c2.926-7.983,5.653-15.967,6.794-19.439c0.348-0.991,1.388-1.587,2.43-1.288l9.72,2.728
		c1.04,0.248,1.686,1.288,1.412,2.33c-0.917,3.77-3.223,12.596-6.471,21.423c-3.224,8.776-7.042,16.413-8.728,19.686
		C443.978,575.175,442.837,575.521,441.844,575.074"/>
	<path clip-path="url(#SVGID_2_)" fill="#040000" d="M275.934,574.729h-87.746c-2.926,0-5.282-2.431-5.282-5.307v-89.557
		c0-2.926,2.356-5.306,5.282-5.306h87.746c2.914,0,5.282,2.38,5.282,5.306v89.557C281.216,572.298,278.848,574.729,275.934,574.729
		 M199.94,563.769h64.242c1.525,0,2.765-1.239,2.765-2.776v-72.747c0-1.537-1.24-2.776-2.765-2.776H199.94
		c-1.55,0-2.79,1.239-2.79,2.776v72.747C197.15,562.529,198.39,563.769,199.94,563.769"/>
	<path clip-path="url(#SVGID_2_)" fill="#040000" d="M257.524,502.824v-6.348c0-0.842-0.719-1.587-1.574-1.587h-47.555
		c-0.893,0-1.6,0.745-1.6,1.587v6.348c0,0.893,0.707,1.587,1.6,1.587h15.05c0.868,0,1.574,0.694,1.574,1.587v9.67
		c0,0.844-0.707,1.537-1.574,1.537h-15.05c-0.893,0-1.6,0.744-1.6,1.637v6.298c0,0.893,0.707,1.587,1.6,1.587h15.05
		c0.868,0,1.574,0.743,1.574,1.587v14.479c0,0.842-0.707,1.587-1.574,1.587h-15.05c-0.893,0-1.6,0.694-1.6,1.587v6.298
		c0,0.892,0.707,1.637,1.6,1.637h47.555c0.855,0,1.574-0.745,1.574-1.637v-6.298c0-0.893-0.719-1.587-1.574-1.587h-15.087
		c-0.855,0-1.574-0.745-1.574-1.587v-14.479c0-0.844,0.719-1.587,1.574-1.587h15.087c0.855,0,1.574-0.694,1.574-1.587v-6.298
		c0-0.893-0.719-1.637-1.574-1.637h-15.087c-0.855,0-1.574-0.693-1.574-1.537v-9.67c0-0.893,0.719-1.587,1.574-1.587h15.087
		C256.806,504.411,257.524,503.717,257.524,502.824"/>
	<path clip-path="url(#SVGID_2_)" fill="#040000" d="M253.434,542.197l-8.318-6.1c-0.719-0.545-0.868-1.537-0.36-2.231l3.732-5.106
		c0.508-0.744,1.525-0.893,2.207-0.348l8.355,6.1c0.707,0.495,0.868,1.488,0.335,2.182l-3.731,5.107
		C255.145,542.545,254.152,542.693,253.434,542.197"/>
	<path clip-path="url(#SVGID_2_)" fill="#040000" d="M307.312,486.361v-8.331c0-0.991,0.843-1.835,1.858-1.835h106.69
		c0.991,0,1.835,0.844,1.835,1.835v8.331c0,1.041-0.844,1.835-1.835,1.835h-53.109c-3.569,7.388-6.794,13.735-13.091,22.711
		c-0.645,0.942,0,2.281,1.141,2.281h51.894c2.976,0,5.38,2.381,5.38,5.356v50.084c0,2.975-2.404,5.354-5.38,5.354h-66.621
		c-2.988,0-5.405-2.38-5.405-5.354v-33.424c-5.356,5.356-10.154,10.067-16.191,15.323c-0.769,0.646-1.958,0.546-2.615-0.198
		l-8.083-9.322c-0.683-0.794-0.559-1.983,0.26-2.678c18.051-14.281,30.36-30.101,39.324-47.406c0.632-1.24-0.298-2.728-1.674-2.728
		H309.17C308.154,488.196,307.312,487.402,307.312,486.361 M347.602,563.074h43.464c0.446,0,0.818-0.397,0.818-0.793v-36.349
		c0-0.446-0.372-0.793-0.818-0.793h-43.464c-0.421,0-0.769,0.347-0.769,0.793v36.349
		C346.833,562.677,347.181,563.074,347.602,563.074"/>
	<path clip-path="url(#SVGID_2_)" fill="#B93231" d="M234.714,247.457c21.435-6,42.856-12.323,64.267-18.051
		c59.258,16.489,118.219,33.597,177.378,50.308c-5.108,17.282,0.174,35.567-3.893,52.923c-1.662,7.092-5.876,13.538-11.877,17.604
		c-15.695,10.761-36.1,11.107-51.696,22.017c-11.38,8.579-18.05,21.671-27.248,32.481c-6.05,7.091-13.886,13.934-23.703,14.826
		c-11.157,1.042-21.919-3.272-32.406-6.645c-9.111-2.926-18.484-6.05-28.179-5.454c-17.976,1.141-34.104,10.909-52.056,11.95
		c-7.996,0.496-15.868-2.38-21.855-7.587c-12.236-10.414-18.993-25.438-30.262-36.597c-3.298-3.224-7.029-5.901-11.12-7.983
		c-14.294-7.289-30.881-9.224-44.307-18.149c-6.521-4.214-11.021-11.206-12.67-18.745c-3.806-16.724,0.261-34.153-3.732-50.815
		C159.166,268.78,196.989,258.119,234.714,247.457"/>
</g>
<g>
	<defs>
		<path id="SVGID_3_" d="M101.569,193.059c-5.889,8.43-11.17,17.976-10.736,28.563c0.508,9.868,5.889,18.744,11.703,26.53v0.173
			c6.422,9.199,14.146,17.877,18.05,28.539c3.459-1.289,6.831-2.678,10.24-4.091c9.335-3.62,18.633-7.463,27.993-11.083
			c11.529-4.686,23.158-9.298,34.786-13.884c11.703-4.687,23.332-9.373,35.034-14.058c4.959-1.885,9.98-3.894,14.914-5.901
			c4.699-1.984,9.571-3.645,14.245-5.802c4.686-2.256,4.748-9.719,0.148-12.05c-5.034-2.083-10.228-3.471-15.261-5.281
			c-4.922-1.661-9.955-3.322-14.902-4.983c-11.554-3.794-23.083-7.687-34.612-11.505c-10.079-3.397-20.232-6.794-30.286-10.166
			c-2.058-0.595-4.066-1.463-6.174-1.735l-0.471,0.174l-0.285-0.57c-9.186-3.323-18.558-6.273-27.832-9.372
			c-2.604-0.893-5.219-1.761-7.81-2.628C115.714,174.587,107.892,183.463,101.569,193.059 M462.919,168.958l-0.198,0.595
			l-0.496-0.148c-8.23,2.182-16.214,5.38-24.372,7.885c-8.43,2.876-16.761,5.628-25.165,8.479
			c-10.067,3.298-20.134,6.769-30.201,10.091v0.075c-4.041,1.388-8.28,2.504-12.297,4.24l-0.248,0.62l-0.446-0.248
			c-5.356,1.116-10.513,3.372-15.67,5.033c-4.265,1.438-8.591,2.579-12.757,4.314c-4.525,2.256-4.772,9.298-0.434,11.876
			c4.142,2.108,8.678,3.545,12.992,5.381c5.555,2.231,11.033,4.413,16.563,6.669c4.066,1.562,8.182,3.397,12.297,4.885v0.074
			c10.067,3.992,20.233,8.083,30.3,12.149c8.43,3.298,16.735,6.67,25.066,10.042c8.405,3.397,16.736,6.67,25.066,10.091
			c4.959,1.884,9.819,3.967,14.729,5.802c0.693-2.083,1.735-4.017,2.43-6.1c7.488-13.414,19.091-24.373,24.992-38.654
			c3.397-7.983,2.852-17.256-0.595-25.166c-5.9-13.959-17.008-24.868-24.299-38.083c-0.694-1.612-1.487-3.273-2.256-4.934
			C472.961,165.661,467.878,167.124,462.919,168.958 M179.472,73.625c-13.177,5.455-27.683,7.711-39.894,15.471
			c-7.054,4.339-11.876,11.604-13.637,19.736c-3.273,14.926-0.855,30.472-3.037,45.547c-0.508,2.256-1.017,4.537-1.624,6.694
			c8.728,2.157,17.405,4.513,26.17,6.497l-0.074,0.099c9.793,2.33,19.6,4.834,29.294,7.289c11.839,2.951,23.616,5.876,35.394,8.827
			c12.955,3.198,25.947,6.521,38.877,9.719c3.905,0.868,7.711,2.058,11.604,2.777c4.798,0.248,8.504-5.38,6.422-9.62
			c-1.984-3.545-4.674-6.67-6.855-10.166c-7.538-10.761-15.087-21.571-22.625-32.431c-6.856-9.818-13.612-19.587-20.468-29.381
			c-5.814-8.257-11.554-16.587-17.331-24.918c-4.699-6.669-9.471-13.438-13.971-20.207
			C184.927,70.947,182.262,72.335,179.472,73.625 M398.207,87.163c-5.976,8.777-12.075,17.355-18.1,26.009
			c-6.967,9.992-13.885,19.959-20.827,29.951c-7.191,10.414-14.405,20.703-21.583,31.042c-2.369,3.297-4.625,6.496-6.856,9.793
			c-1.141,1.586-2.082,3.471-1.76,5.455c0.26,3.893,4.426,7.215,8.231,6c4.872-1.141,9.645-2.43,14.479-3.471
			c11.753-3.025,23.529-5.827,35.308-8.752c11.727-2.876,23.504-5.827,35.207-8.678l-0.149-0.272
			c1.439,0.272,2.951-0.496,4.315-0.793c9.024-2.231,18.149-4.389,27.174-6.669c7.686-1.909,15.521-3.794,23.231-5.703
			c-0.322-1.388-0.619-2.876-1.189-4.264c-3.05-16.389,0.248-33.398-3.917-49.613c-2.008-8.306-7.91-15.422-15.348-19.513
			c-12-6.669-25.588-9.025-38.184-14.207c-2.604-1.24-5.106-2.529-7.537-4.017C406.487,75.286,402.472,81.336,398.207,87.163
			 M222.577,29.764c-8.43,8.058-14.467,18.223-21.683,27.298c-3.298,3.917-6.781,7.736-10.835,10.859
			c3.905,4.761,7.884,9.546,11.777,14.307c5.132,6.224,10.153,12.496,15.36,18.546h-0.1c6.261,7.488,12.311,15.025,18.484,22.464
			c7.538,9.124,15.075,18.223,22.563,27.422c3.459,4.165,6.856,8.256,10.314,12.421c3.979,4.835,7.897,9.868,12.062,14.529
			c3.546,3.769,10.662,1.513,11.443-3.62c0.607-6.421,0.508-12.843,0.868-19.265c0.272-5.182,0.434-10.389,0.608-15.595
			c0.434-11.802,0.867-23.58,1.375-35.407c0.372-9.868,0.707-19.661,1.066-29.554c0.322-7.835,0.607-15.62,0.93-23.455
			c0.186-5.951,0.458-11.951,0.62-18.026c-5.182-0.248-10.314-1.388-15.36-2.752c-12.397-3.496-24.559-9.298-37.637-9.546
			c-0.174-0.024-0.348-0.024-0.534-0.024C235.854,20.367,228.243,24.21,222.577,29.764 M351.99,20.466
			c-14.678,0.967-27.931,7.884-42.075,11.009c-3.124,0.619-6.249,1.041-9.472,1.214c0.359,9.819,0.793,19.613,1.141,29.406
			c0.435,9.992,0.793,19.935,1.227,29.926c0.248,7.29,0.51,14.48,0.855,21.77c0.36,10.414,0.794,20.752,1.228,31.117
			c0.422,9.669,0.533,19.364,1.29,29.083c0.792,5.306,8.43,7.438,11.802,3.298c6.224-7.364,12.211-14.827,18.385-22.191
			c6.607-8.108,13.239-16.166,19.96-24.224c4.487-5.529,9-11.008,13.513-16.587c6.521-7.786,12.917-15.571,19.339-23.381
			c6.322-7.736,12.596-15.347,18.918-22.984c-2.454-2.008-4.686-4.091-6.868-6.322h-0.173c-8.927-10.241-15.695-22.39-25.489-31.836
			c-5.727-5.579-13.314-9.397-21.372-9.397C353.453,20.367,352.734,20.417,351.99,20.466"/>
	</defs>
	<clipPath id="SVGID_4_">
		<use xlink:href="#SVGID_3_"  overflow="visible"/>
	</clipPath>
	
		<radialGradient id="SVGID_5_" cx="-262.6025" cy="734.6855" r="25.3889" gradientTransform="matrix(11.6809 0 0 -11.6809 3365.4111 8797.8623)" gradientUnits="userSpaceOnUse">
		<stop  offset="0" style="stop-color:#F0D22E"/>
		<stop  offset="0.0202" style="stop-color:#F0D12E"/>
		<stop  offset="0.6866" style="stop-color:#EEA428"/>
		<stop  offset="1" style="stop-color:#ED9126"/>
	</radialGradient>
	<rect x="90.399" y="20.367" clip-path="url(#SVGID_4_)" fill="url(#SVGID_5_)" width="418.067" height="256.496"/>
</g>
</svg>
