<?xml version="1.0" encoding="utf-8"?>
<!-- Generator: Adobe Illustrator 16.0.0, SVG Export Plug-In . SVG Version: 6.00 Build 0)  -->
<!DOCTYPE svg PUBLIC "-//W3C//DTD SVG 1.1//EN" "http://www.w3.org/Graphics/SVG/1.1/DTD/svg11.dtd">
<svg version="1.1" id="图层_1" xmlns="http://www.w3.org/2000/svg" xmlns:xlink="http://www.w3.org/1999/xlink" x="0px" y="0px"
	 width="595.28px" height="127.369px" viewBox="0 0 595.28 127.369" enable-background="new 0 0 595.28 127.369"
	 xml:space="preserve">
<g>
	<defs>
		<rect id="SVGID_1_" x="5.875" y="14.754" width="583.497" height="95.201"/>
	</defs>
	<clipPath id="SVGID_2_">
		<use xlink:href="#SVGID_1_"  overflow="visible"/>
	</clipPath>
	<path clip-path="url(#SVGID_2_)" fill="#DE2726" d="M417.932,64.034v-4.259c0-28.198-14.054-45.021-37.603-45.021
		c-23.495,0-39.909,19.564-39.909,47.594c0,21.716,10.896,47.855,43.21,47.607c8.891-0.071,19.095-1.757,26.938-4.632V97.39
		c-6.974,3.266-18.225,5.892-25.971,5.892c-28.375-0.035-36.493-23.513-35.783-39.248C349.062,64.006,417.932,64.034,417.932,64.034
		 M348.813,55.71c0-16.485,13.291-34.275,32.297-34.275c19.83,0,29.138,19.325,29.138,35.899l-61.435,0.009V55.71z"/>
	<polygon clip-path="url(#SVGID_2_)" fill="#DE2726" points="49.933,98.278 15.121,14.798 5.88,14.798 43.775,107.736 
		55.097,107.736 94.049,14.798 85.362,14.798 	"/>
	<path clip-path="url(#SVGID_2_)" fill="#DE2726" d="M223.835,14.754c-18.354,0-26.321,8.278-30.092,16.353l0.018-14.134h-8.34
		v20.487v70.276h8.34V57.37c0.009-18.677,8.34-35.926,30.074-35.926c19.795,0,23.349,16.725,23.349,30.762v55.53h8.35V49.269
		C255.534,31.337,248.994,14.754,223.835,14.754"/>
	<rect x="275.231" y="14.763" clip-path="url(#SVGID_2_)" fill="#DE2726" width="8.35" height="92.973"/>
	<polygon clip-path="url(#SVGID_2_)" fill="#DE2726" points="328.689,16.963 283.598,58.878 283.581,58.878 283.589,58.887 
		283.581,58.887 283.598,58.887 328.796,107.736 338.396,107.736 293.447,58.878 338.396,16.963 	"/>
	<path clip-path="url(#SVGID_2_)" fill="#DE2726" d="M145.71,16.342c-3.806-1.154-7.994-1.473-12.138-1.473
		c-9.405,0-21.024,3.425-30.283,8.172l1.18,7.151c0.936-0.532,1.873-1.047,2.799-1.544c3.141-1.632,13.3-6.885,27.129-6.947
		c11.384-0.053,16.334,4.951,17.599,6.309c3.66,4.126,5.39,10.417,5.39,19.218v5.599c-31.911-0.018-60.122,3.31-60.122,32.212
		c0,9.068,4.068,24.915,30.057,24.915c9.458,0,25.15-7.081,30.083-17.391v15.172h8.332v-18.1V48.16
		C165.736,31.168,159.384,20.45,145.71,16.342 M157.387,73.399c0.018,11.801-11.25,29.475-29.484,29.865
		c-15.603,0.337-22.741-6.867-22.741-18.686c0-24.316,29.644-24.068,47.27-24.502h4.956V73.399z"/>
	<path clip-path="url(#SVGID_2_)" fill="#636466" d="M440.167,48.692h16.096c0.213,11.739-1.056,44.049-14.179,61.262h5.643
		c8.395-13.31,11.305-29.263,12.564-42.311h37.327c0.808,0,1.465,0.675,1.465,1.482v34.972v0.106c0,0.692-0.568,1.26-1.242,1.26
		v0.054h-0.125h-12.607v4.437h15.367c1.668,0,3.044-1.385,3.044-3.07v-1.366V67.644v-1.623c0-1.579-1.261-2.813-2.805-2.813h-40.052
		c0.427-5.9,0.595-10.94,0.844-14.516h44.7v-4.454h-66.04V48.692z"/>
	<polygon clip-path="url(#SVGID_2_)" fill="#636466" points="570.863,82.396 565.451,65.826 560.305,65.826 565.727,82.396 	"/>
	<polygon clip-path="url(#SVGID_2_)" fill="#636466" points="574.732,62.809 569.319,46.234 564.164,46.234 569.604,62.809 	"/>
	<path clip-path="url(#SVGID_2_)" fill="#636466" d="M540.536,67.644h11.012v-4.436h-12.751V48.701h12.751v-4.454h-30.922v4.454
		h12.813v14.507h-12.813v4.436h11.632c-0.497,5.985-4.09,17.343-11.632,26.499v5.058c6.903-5.785,10.904-12.511,13.273-18.296v29.05
		h4.445V75.404c3.008,5.306,7.409,11.269,14.001,16.166v-4.419C545.754,80.852,541.921,72.707,540.536,67.644"/>
	<polygon clip-path="url(#SVGID_2_)" fill="#636466" points="583.924,87.133 583.924,43.759 579.47,43.759 579.47,87.133 
		554.218,87.133 554.218,91.57 579.47,91.57 579.47,109.883 583.924,109.883 583.924,91.57 589.372,91.57 589.372,87.133 	"/>
</g>
</svg>
