<svg version="1.1" id="Layer_1" xmlns="http://www.w3.org/2000/svg" xmlns:xlink="http://www.w3.org/1999/xlink" x="0px" y="0px"

	 viewBox="0 0 936.7 496.4" width="434.394555833" height="230.205463345" enable-background="new 0 0 936.7 496.4" xml:space="preserve">

<path fill="#FBB041" d="M734.4,318.1c-0.8-4-4.2-6.2-6.4-9.3c-13.5-19.2-19.7-40.4-16.2-63.5c3.6-23.7,16.7-41.9,37.2-54.4

	c9.9-6.1,20.4-10.9,32.1-12.6c1.1-0.2,2.2-0.8,3.3-1.1c1.7-0.8,3.5-0.6,5.3-0.8c9.7-1,19.3,0.1,29,0.1c12.5-0.1,24.1,3.6,35.7,8

	c14.5,5.5,27.6,13.5,39.2,23.7c7.8,6.8,15.1,14.1,20.2,23.3c0,1.2,0.3,2.1,1.1,3.1c6.2,8.3,9.8,17.9,12.5,27.6c4,15,2.9,30-2.3,44.8

	c-6.6,18.8-19.6,31.9-36.3,41.7c-11.2,6.6-23.4,10.3-36.3,12.4c-20.5,3.4-40.3,1.2-59.5-5.5c-14-4.9-27.7-10.9-39.2-20.9

	c-4.6-4-9.7-7.2-12.7-12.9C739.7,319.7,737.7,317.5,734.4,318.1z"/>

<path fill="#99CC66" d="M639.7,456.8c-6.1-8.8-12.6-17.3-17.1-27.2c-8.2-17.6-13.3-35.9-13.3-55.5c-0.9-8.9,1.4-17.6,1-26.4

	c3.5-9.9,7.3-19.7,12.6-28.9c10.9-19,35-29.7,56.3-25c21.1,4.7,36.8,17,49.7,33.5c3.7,4.7,6.9,9.7,10.3,14.5

	c0.1,1.5-0.1,2.9,0.7,4.4c5.3,9.4,8.9,19.5,11.7,29.9c5.5,20.7,5.7,41.4-0.2,62.1c-4,14.1-10.6,26.4-22.2,36

	c-9,7.5-19.4,11.8-30.6,12c-16.5,0.3-31.2-5.7-44.1-16.6c-2.3-1.9-4.4-5.7-8.5-5c0,0,0.1,0,0.1,0C645.4,461,643.2,458.3,639.7,456.8

	z"/>

<path fill="#FBB041" d="M745,56c17.2-12.7,36.2-21.4,57.2-24.8c20.1-3.3,40.1-2.7,58.6,7.5c9,5,16.3,11.6,20.9,21

	c0.2,1,0.9,1.5,1.7,2c0,0-0.1-0.1-0.1-0.1c0.2,1.6,0,3.4,0.7,4.9c2.5,5.7,2.2,11.9,1.8,17.6c-1.2,19.4-11.7,34.7-25.2,47.5

	c-15,14.3-32.7,24.5-53.1,29.8c-14.4,3.8-28.7,6.6-43.6,4.2c-15.9-2.5-31.4-6.2-41.6-20.4c-0.2-0.3-1.2-0.1-1.9-0.1

	c-9-9.7-11.6-21.4-10.5-34.1c0.3-3.7,0.4-7.6,2.8-10.8c0.2-1.3,0.2-2.7,0.7-3.9c4-8.6,8.7-16.6,14.9-24

	C733.4,66.4,739.8,61.8,745,56z"/>

<path fill="#FBB041" d="M534.4,410.6c-9.9-9.7-14.3-22.1-16.6-35.1c-3.5-19.8-1.8-39.4,5.6-58.3c5-12.8,12.2-24.4,24.4-31.6

	c14.5-8.6,26.6-5.8,38.1,5.7c3.8,3.8,6.4,8.7,9.6,13.2c-0.8,2.9,1.5,5,2.3,7.4c5.2,16.4,7.2,32.9,3.9,50

	c-3.7,19.1-10.1,36.3-25.5,49.6c-10.8,9.3-32.2,10.3-40.7-1.4C534.5,408.8,534.6,410.2,534.4,410.6z"/>

<path fill="#FBB041" d="M636.3,73.7c-0.2-24.9,13.1-42.5,31.4-57.2c8.3-6.7,17.5-12,28-14.5c11.1-2.6,22.3-3.5,32.8,2.7

	c5.2,3.1,7.8,8.3,10.8,13.2c-0.1,0.4-0.5,1-0.4,1.3c4.3,13.3,0.3,25.4-5.8,36.8c-8,15.1-19.9,26.9-34.9,35.2

	c-11.3,6.3-23.2,10.6-36.6,8.8c-5.5-0.7-10-4-15.2-5.4c-4.8-4.7-8.6-10.1-9.7-17C636.6,76.3,636.5,75,636.3,73.7z"/>

<path fill="#9BCB68" d="M262.1,256.8c-14-16.7-14.7-41.7-1.4-61.8c9-13.8,21-22.9,38.5-22.5c5.2,0.1,9.8,1.4,13.7,4.9

	c2.6,2.4,4.6,2.5,7.8-0.4c5.9-5.4,17.8-5.9,19.7,4.6c-1.5,3.2-0.8,6.7-1.4,10.1c-3.6,19.5-7.3,39-10.6,58.6

	c-4.4,26.5-22.7,42.5-49.4,43.4c-10.6,0.3-20.3-2.3-29.9-6c-8.2-7.7-7.9-15,0.8-19.9c2.9-1.6,5.8-1.4,8.6-0.4

	c4.1,1.4,8.1,2.9,12.1,4.6c5.7,2.3,11.6,2.7,17.5,1.2c2.6-0.6,5.2-1.5,6.2-4.4c6.1-1.5,10-7.9,9.7-16.6

	c-12.7,9.7-26.2,12.2-40.6,4.2C263.1,256.2,262.6,256.6,262.1,256.8z M281.6,237.5c6.4,3.8,13.3,3,19.2-2c10-8.6,13.8-24,8.4-33.5

	c-0.7-2.6-1.9-4.8-4.5-6.2c-6.5-3.5-13.8-2.6-19.7,2.7c-9.5,8.4-10.9,19.4-9.3,31C276.1,232.8,277.9,236.1,281.6,237.5z"/>

<path fill="#9BCB68" d="M404.2,92.6c0.5,2.6,1.8,4.7,3.3,6.8c-1.1,0.5-2,1.4-2,2.6c0.2,6.5-1.8,12.7-2.1,19.1

	c-0.4,8.1-3.8,11.5-12,11.5c-4.1,0-8.3,0-12.4,0c-2.3-1.4-4.3-3.1-4.7-6c0.3-0.9,0.4-2,0.9-2.7c3.6-4.4,0.3-4.5-2.8-4.3

	c-2.3,0.1-4.6,0.6-6.9,1c-11.4,1.7-22.9,3.4-34.3,5.1c-2.8-0.1-3.9-1.9-4.5-4.3c-1-1.6,0.2-2.9,0.5-4.3c2.3-1.8,4.8-2.5,7.7-2.8

	c4.6-0.4,9.1-1.3,13.7-1.6c2.8-0.2,2.7-1.7,2.5-3.6c1.5-6.4,1.4-6.5-5-6.5c-5.8,0-11.6,0.4-17.4-0.1c-4.9-0.5-6,2.1-6.4,5.9

	c-0.7,5.9-1.4,11.8-2.1,17.7c-0.7,6.1-2.2,7.4-8,7.5c-3.6,0-4.5-2.2-4.1-5.2c1.1-10.2,1.9-20.4,3.4-30.4c0.9-5.9,6.1-6.1,10.9-6.2

	c3.5,0,7,0.1,10.4,0.1c5.8,0,11.6,0,17.4,0c1.4,0,2.8-0.1,2.8-1.9c0.1-1.9-1.3-2-2.7-2.1c-2.3,0-4.6-0.1-7,0c-7,0.4-14.2-1-21.2,0.8

	c-3.3-1.1-4.6-3.4-4.2-6.8c1-8.4,0.5-17.1,3.7-25.2c3.2-2.4,6.9-1.8,10.5-1.8c1.8,0,2.9-0.6,2.9-2.5c0-1.7-0.9-2.4-2.5-2.3

	c-4.4,0.3-9-0.9-13.3,0.9c-4.4-1-4.8-4.3-4-7.8c0.7-3.3,3.4-4.1,6.5-4.1c2.7,0,5.3-0.1,8,0c3.5,0.2,6.1-0.5,8.3-3.9

	c3-4.6,9.7-3.7,11.8,1.5c0.8,2,1.9,2.3,3.7,2.3c8.1-0.1,16.3-0.1,24.4-0.1c2.1,0,3.5-0.6,4.1-2.7c1-3.5,3.7-4.4,7-4.4

	c3,0,5.1,1.4,5.8,4.4c0.5,2.1,1.9,2.5,3.7,2.5c3.3,0,6.7,0.3,10,0.1c4.6-0.3,7,1.4,6.5,6.3c-1.3,3.6-3.8,5.1-7.7,4.8

	c-3.5-0.3-7-0.1-10.4-0.1c-1.8,0-3.9-0.2-3.8,2.6c0.1,2.5,1.9,2.4,3.6,2.3c3.2-0.3,6.2,0.4,9,2c0.1,1.4,0.3,2.8,0.4,4.3

	c-1.1,1.6-1,3.5-1,5.3c-0.1,4.8-1.1,9.5-1.9,14.2c-0.4,2.3-1.5,3.7-3.5,5c-2.5,1.7-5,2.4-7.9,2.4c-7,0-14-0.1-20.9,0.1

	c-1.7,0-4.6-1.2-4.6,2.1c0.1,2.8,2.7,1.7,4.3,1.8c3,0.2,6,0,9,0.1C388,92,396.2,90.9,404.2,92.6z M387.4,113.6

	c0.1,2.6,0.3,5.2-2.1,8.1c3.2-0.3,6.2,1.1,6-3.3c0.7-3.1,1.6-6.2,0.6-9.4c3-5.5,2.2-6.5-5.5-6.3c-1.8,0-4.6-1-5.3,1

	c-0.5,1.6,1.9,3.1,3.1,4.7c0.3,0.3,0.9,0.4,1.4,0.5C384.3,111.2,387.6,111.7,387.4,113.6z M364.6,49.7c-4.5,0-8.9,0-13.4,0

	c-1.4,0-2.7,0.2-2.8,2c-0.1,1.5,0.2,2.7,2,2.7c9.1,0,18.2,0,27.3-0.1c1.5,0,2.4-1,2.4-2.6c0-1.8-1.2-2.1-2.7-2.1

	C373.2,49.7,368.9,49.7,364.6,49.7z M344.3,67.6c3.3,0,6.6,0,9.9,0c1.2,0,2.5-0.4,2.6-1.7c0.2-1.8-1.3-2.2-2.7-2.2

	c-6.5,0-12.9,0-19.4,0c-1.3,0-2.3,0.5-2.3,2c0,1.6,1,1.9,2.3,1.9C338,67.6,341.1,67.6,344.3,67.6z M381.3,67.6

	C381.3,67.6,381.3,67.6,381.3,67.6c3,0,6,0.1,9,0c1.2,0,2.5-0.4,2.6-1.8c0.1-1.8-1.4-2.1-2.7-2.1c-6.1,0-12.3,0-18.4,0

	c-1.3,0-2.3,0.5-2.3,2c0,1.5,1.1,1.9,2.4,1.9C375,67.6,378.2,67.6,381.3,67.6z M343.7,74.6c-3.3,0-6.6,0-9.9,0c-1,0-2.2,0.2-2.2,1.5

	c0,1.3,1.1,1.5,2.1,1.5c6.5,0,12.9,0,19.4,0c1.1,0,2-0.4,1.9-1.7c-0.1-1-1-1.2-1.8-1.2C350,74.6,346.9,74.7,343.7,74.6z M379.2,77.7

	C379.2,77.7,379.2,77.7,379.2,77.7c3.1,0,6.3,0,9.4-0.1c1.1,0,2.5,0,2.4-1.7c-0.1-1.3-1.3-1.3-2.3-1.3c-6.3,0-12.6,0-18.9,0

	c-1,0-1.9,0-2,1.5c0,1.5,0.8,1.6,1.9,1.6C373,77.7,376.1,77.7,379.2,77.7z M364.3,106.6c0.3,1.5-0.8,4,2.2,3.9c4-0.1,3.8-4.1,5-6.5

	c1-2-2.1-2-2.9-2C365.9,102,363.7,103.1,364.3,106.6z"/>

<path fill="#9BCB68" d="M92,108.8c-2.9-1.5-5.3-3.3-4.6-7.2c0.7-3.3,2.2-5.4,5.9-5.3c0.8,0,0.8-0.9,0.9-1.5c1.1,0,2.2,0.1,3.3,0.1

	c-0.1,0.6-2.1,0.8-0.9,1.3c1.5,0.6,3.7,0.6,5.2,0c1.4-0.6-0.8-0.6-0.7-1.3c2.6-0.7,2.5-2.8,2.2-4.7c-0.4-2.4-2.5-1.6-4-1.7

	c-2.9-0.1-5.9,0-8.8,0.1c-3.5-0.2-4.3-2.6-4.1-5.5c0.2-3,1.8-5,4.8-5.4c2.9-0.4,5.9-0.1,8.9-0.3c1.5-0.1,3.4,0.8,4.4-1.2

	c2.3-6.3,1.8-6.8-6-6.7c-3.1-0.3-4.2-2.1-4-5c0.2-2.7,0.6-5.3,4-6c0.8-0.2,1.7-0.1,2.1-1c6,0,12,0,18,0c-1.8-2.1-1.5-5.8-3.9-5.9

	c-5.7-0.1-11.5-1.3-17.2,0.8c-3-1.7-5.5-3.6-4.4-7.9c1.2-4.2,3.9-5.3,7.9-5.1c3,0.2,6-0.1,9,0c3.8,0.2,7.2,0.9,8.6-4.6

	c0.8-3.2,4.9-3.5,8.2-3.3c2.7,0.2,4.1,1.5,4.6,4.3c0.5,3.1,3.3,3.4,5.8,3.6c3.3,0.2,6.7,0,10,0.1c3.7,0.2,6.8,0.2,7.8-4.6

	c0.7-3.3,3.9-3.7,6.9-3.6c2.5,0,4.9,0.8,5.4,3.4c0.9,4.1,3.9,4.5,7.1,4.7c3.2,0.2,6.3,0.2,9.5,0c5.2-0.5,8.4,1.3,8.6,6.9

	c-2.2,3.9-5.5,5.4-9.9,5.1c-3.6-0.3-7.3,0.1-11-0.1c-3.2-0.2-5.6,0.4-7.7,3.2c-2.3,3.1-7.3,3-9.6,0c-2.1-2.9-4.6-3.2-7.7-3.1

	c-4.3,0.2-8.7,0-13,0c-1.3,0-3.1-0.5-3.8,0.7c-1.9,3.4-5.1,4.6-8.7,5.4c1.7,0.6,3.2,0.7,4.8,0.9c5,0.6,9.9-0.9,14.9-1.1

	c8.3-0.2,16.6,1.1,24.8,0.9c6.9-0.2,13.9-1.3,20.8-0.8c-2.5,2.4,1.8,4.6,0.2,6.9c-2.2,4.4-6.2,4.3-10.3,4.1

	c-1.4-0.1-3.3-0.4-3.6,1.6c-0.3,2.1-0.9,4.5,0.3,6.3c1.1,1.8,2.9,0.6,4.4-0.1c2.1,1.3,4.5,0.8,6.7,0.8c2.4,0,4.2,0.8,4.5,3.5

	c-1.2,6.9-2,7.7-8.7,7.7c-2.3,0-4.6,0-6.9,0c-2.3,0-3,1.2-3.4,3.4c-0.8,5.1,2.5,4.7,5.7,4.6c1.3,0,2.7,0.1,4-0.1

	c4.8-0.6,6.8,1.5,6.2,6.2c-2,4.1-5.3,5.1-9.7,5c-10.3-0.3-20.6-0.1-30.8-0.1c-1.8,0-3.4,0.1-3.4,2.5c0,2.4,1.7,2.5,3.4,2.5

	c6.3,0,12.6-0.1,18.9,0c5.3,0.1,10.6-1,15.7,1.2c0,1.6,0.1,3.2,0.1,4.8c-1.9,3.9-4.9,5.3-9.3,5.1c-9-0.3-18-0.1-27-0.1

	c-1.8,0-3.7-0.2-3.9,2.6c-0.4,5.7-4.1,7.1-9,6.6c-2,0-3.8-0.4-3.9-3c0.9-5-1-6.6-6.1-6.3c-9.4,0.5-18.8,0.2-28.2,0.3

	c-2.6-0.3-4.3-1.5-4.6-4.3c-0.4-3.9,1.9-6,4.9-7.8c2.2,1.8,4.8,0.8,7.2,0.9c8.3,0.1,16.7,0,25,0.1c2.1,0,3.2-1,3.5-2.8

	c0.4-1.9-1-2.2-2.5-2.2c-10.5,0-21,0-31.5,0.1C93.4,107.7,92.7,108.4,92,108.8z M159.2,75.9c1-4.8-0.5-7.3-5.8-6.3c-1,0.2-2,0.1-3,0

	c-3.1-0.3-5.2,0.1-5.3,4.3c0,4.3,2.5,3.8,5.2,3.7C153.2,76.5,156.8,79.4,159.2,75.9z M120.6,96.5c3.1-0.5,6.4,1.1,9.2-1.1

	c1-6.8,1-6.8-5.6-6.8c-1.2,0-2.4,0.1-3.5,0c-4.3-0.6-5.2,2.1-5.2,5.4C115.4,98,118.7,96.1,120.6,96.5z M125.4,69.6

	C125.4,69.6,125.4,69.6,125.4,69.6c-0.7,0-1.3,0.1-2,0c-5-1.1-5.7,2.3-5.3,5.8c0.5,4.4,3.9,1.4,5.9,1.6c2,0.1,4.1-1,6.2-1.3

	c2.1-0.3,2.1-1.6,2.2-3.2c0-1.8-0.5-2.9-2.5-2.8C128.4,69.7,126.9,69.6,125.4,69.6z M143.6,93.5c0.2,0.4-0.8,3.5,1.5,2.7

	c3.4-1.2,6.9,0,10.2-1.4c2.1-0.9,2.1-2.2,2.1-3.9c0-2.1-1.4-2.4-3-2.3c-2.3,0-4.7,0.1-7,0C144.3,88.4,142.8,89.4,143.6,93.5z"/>

<path fill="#9BCB68" d="M424.1,108.8c-3.8-2-5.4-5.2-4.5-9.4c0.9-3.9,4.1-4.7,7.5-5.1c0.6-0.1,1.2-0.5,1.8-0.7

	c11.8-3,22-9.2,32.4-15c1.4-0.8,3.5-1.7,2.3-3.7c-1.4-2.4-3-0.5-4.6,0.3c-10.3,5.4-20.7,10.6-32.4,12.4c-3.7-0.8-4.3-3.6-4.4-6.8

	c-0.1-3.4,2.2-4.4,4.9-5.3c1.5-0.5,3.4-0.2,4.3-2c1,0,2,0.1,3,0c6.1-0.9,6.8-2.1,5.1-8c-1.6-5.3,0.9-9,6.5-9

	c19.1,0,38.3-0.1,57.4,0.3c3.5,0.1,4.7-1.3,4.8-4c0.1-3.3-2.8-2.2-4.5-2.2c-19.8-0.1-39.6,0.1-59.4-0.1c-4.4,0-5.9,1.5-6,5.7

	c-0.2,7.9-1.8,9.9-8.8,12.3c-3.3-0.8-4.6-2.9-4.3-6.3c0.6-5.4,1.1-10.9,1.9-16.3c0.7-4.9,3.7-7.2,8.5-7.2c9,0,18-0.1,26.9,0

	c2.6,0,4.8,0.2,4.9-3.7c0-3.9,3.5-4.4,6.5-4.8c3-0.4,6.2-0.3,7.5,3.3c1.5,4.1,4.4,5.4,8.5,5.3c7.3-0.1,14.6,0.3,21.9-0.1

	c6.5-0.4,11.5,0.9,13.5,7.8c-2.9,0.8-2.3,3.7-3.3,5.6c-3.1,6-4.7,13.1-13,15.7c3.2,1.3,3.9,4.2,6.1,5.7c0.1,0.6,0.2,1.3,0.4,1.9

	c-4.1,2.6-6.6,6.8-10.3,9.8c-3.5,2.9-6.7,6.4-11.9,6.3c-5.8-5.1-5.7-7,0.2-12.1c1.8-1.5,3.5-3,5.3-4.5c2.4-2,4-4.9,6.9-6.3

	c3.1-1.5,0.8-2.8-0.1-4.2c-1.5-2.5-2.2-0.6-3.1,0.5c-1.9,2.2-4.3,2.9-7.1,2.9c-3.8-0.1-7.7,0-11.5,0c-2.4,0-5.2-0.3-6.6,1.4

	c-1.8,1.9,1.9,2.9,2,4.9c0,0.9,0.2,2,1.1,2.6c0,0-0.1-0.1-0.1-0.1c0.4,0.4,0.7,0.7,1.1,1.1c0,0-0.1-0.1-0.1-0.1

	c0.4,0.4,0.7,0.7,1.1,1.1c0,0,0-0.1,0-0.1c0,0.9,0,1.7,1,2.1c0,0,0-0.1,0-0.1c0.3,4.1,1.3,7.8,5.3,9.9c5.5,11.6,14.7,19.7,25.2,26.6

	c1,0.6,1.4,1.3,1.4,2.4c0.6,3.7-0.3,7.3-3.6,9.1c-3.4,1.8-6.6-0.4-9.4-2.4c-2.4-1.7-3.7-4.7-6.9-5.4c-2.8-2-3.5-5.7-6.1-7.9

	c-0.4-2.6-2.5-4-4.5-6.3c-0.6,3.3-1.2,5.9-1.5,8.4c-1.4,10.9-9.2,17.7-20.1,17.9c-4.2,0.1-8.2-0.6-12.3-1c-2.4-0.9-3.7-3.6-6.5-3.6

	c2-0.8,2.2-2.7,2.7-4.4c1.7-5.6,3.6-6.7,9.3-5c1.9,0.5,3.8,0.8,5.7,1.1c4.4,1.8,6.5-0.8,8.1-4.3c0.3-0.9,0.7-1.9,0.9-2.8

	c0.3-2.1,1.2-5-0.2-6.2c-1.8-1.6-3.9,0.7-5.6,1.8c-13.9,8.6-28.2,16-44.3,19.4c-3.3-1.7-4.9-4.3-4.5-8.1c0.5-3.9,3.5-4.8,6.7-5.4

	c0.8-0.2,1.6-0.5,2.4-0.7c15.7-4.3,29.8-11.9,43.1-21.1c1.5-1,3.3-2,1.9-4.3c-1.6-2.7-2.9-0.2-4,0.5c-7.6,4.7-15.5,8.9-23.5,12.8

	C436.9,104.4,430,105.4,424.1,108.8z"/>

<path fill="#9BCB68" d="M587,256.7c-14.1-11.7-15.9-26.9-12.1-43.7c0.7-3.2,1.6-6.4,2.5-9.6c3.7-6.3,8.8-11.8,11.9-18.5

	c5.7-3.6,10.6-8.4,17.3-10.4c10.1-3.1,20-3.4,29.2,2.5c3.1,2,4.1,1.6,4.7-2.1c1.1-8,2.7-16,4-24c1.4-8.8,6.6-14.2,13.9-14.5

	c6.3-0.2,8.2,1.3,10.2,7.8c-1.2,16.1-5.3,31.7-7.7,47.5c-2.8,18-6.4,35.9-9.4,53.8c-1.5,9.2-7.3,14.7-16.9,15.1c-0.7,0-1.4,0-2.1,0

	c-1.5-2.2-2.9-4.4-4.4-6.5c-1-1.5-2.3-1.9-3.7-0.6c-6.5,6.1-14.5,7.2-23,7.3C595.9,260.8,591.9,257.6,587,256.7z M605.2,238.6

	c2.8,1.5,5.8,1.5,8.8,0.9c13.4-2.5,24.3-23.8,18.6-36.4c-0.3-0.6-0.9-1-1.3-1.5c0.3-2.1-0.7-3.4-2.3-4.6c-5.6-4.4-11.8-4.8-17.7-1.5

	c-9.2,5.1-12.9,13.8-13.9,23.8C596.7,227,597.1,234.4,605.2,238.6z"/>

<path fill="#9BCB68" d="M493.3,260.7c-1,0-1.9,0-2.9-0.1c-0.6-2.8-3.1-4.6-3.9-7.4c-0.5-2-1.9-1.1-3-0.2

	c-11.6,9.2-23.9,10.7-37.1,3.6c-0.7-0.4-1.5-0.9-2.2,0.1c-17.1-16.6-15.1-35.5-6.7-55.1c6.1-14.3,16.6-24.2,31.7-28.2

	c9.5-2.5,19.2-2.4,26.7,6c1.6,1.8,2.7,1.2,3.9-0.6c2.3-3.3,5.7-4.8,9.7-5.5c6.6-1.1,9.7,2.8,12,8c-3.5,2.1-1.8,5.8-2.3,8.7

	c-3.1,17.4-6.7,34.7-9,52.3C508.8,253,504.5,261.5,493.3,260.7z M462.6,238.4c1.2,1,2.7,1,4.2,1.3c7,1.1,11.7-2.4,16.5-6.9

	c7.1-6.6,11.1-23.3,5.9-31c-2.7-7.8-12.1-10.6-20.2-6.2c-10.9,6-16.4,21.6-13,33.8C456.9,233,458,237.2,462.6,238.4z"/>

<path fill="#9BCB68" d="M79.3,195.6c4.8-4,8.2-9.4,12.9-13.6c10.4-9.4,26.7-12.6,38-6.9c3.9,2,9.8,1.9,13.8-0.3

	c7.3-4,14.9-0.9,15.5,6.2c-2.7,23-7.2,45.8-11.9,68.5c-1.7,8.4-7.9,12-16.2,10.2c-0.6,0-1.3,0.1-1.9,0.1c0.1-1.5-1.6-2.1-1.9-3.3

	c-1.4-6.1-4.2-4.1-7.5-1.6c-4.8,3.6-10,5.5-16.2,5.9c-8.8,0.6-16-2.9-23.1-7.2c-11.5-13.4-11.8-28.3-6.7-44.3

	C75.6,204.6,78.9,200.6,79.3,195.6C79.4,195.6,79.3,195.6,79.3,195.6z M127.3,201.7c1.6-1.8,1.1-3.4-1.4-5.3

	c-6.1-4.3-14.9-3.7-20.7,1.3c-7.8,6.8-10.9,15.8-10.6,25.7c0.1,4.7-0.6,10.7,5.7,13c5.4,5,14.7,4.3,21-1.7c7-6.8,10-15.4,9.9-25.1

	C131.1,206.6,130.6,203.4,127.3,201.7z"/>

<path fill="#9BCB68" d="M219.7,260.7c-5.2-3.6-7.1-8-5.6-14.6c2.7-12.5,4.6-25.1,6.9-37.7c0.5-2.7,0.4-5.3,0.3-8

	c-0.8-5.2-4.3-7.7-9-8.7c-9.6-1.9-19.2,5.1-20.8,14.8c-2.2,13-4.4,26.1-6.9,39c-2,10.8-6.7,14.6-17.5,15c-6.8-3.7-6.4-10-5.4-16.2

	c3.2-19.1,6.6-38.2,10-57.3c0.7-4.1,2.3-8,5.7-10.7c6.5-5.2,14.5-3.7,18.6,3.4c12.6-9.3,25.9-10,39.7-3.3c4.7,2.3,6.7,7.2,9.7,11

	c-2,2.7,0.3,5.3,0.1,8c-1.1,17-5.1,33.5-8.1,50.2C235.4,256.5,230.4,260.2,219.7,260.7z"/>

<path fill="#9BCB68" d="M374.5,238.7c4.3,4.8,14.3,3.2,19.5-3.1c3.7-4.4,4.5-9.8,5.4-15.3c2-12.1,4-24.2,6.4-36.3

	c1-4.9,4.1-8.8,9.3-10.2c6.8-1.9,10-0.2,14.3,7.8c-2.6,14.1-5.4,28.1-7.9,42.2c-1.3,7.3-3.2,14.4-7.4,20.4

	c-13,18.4-41.8,20.8-57.9,11.6c-0.9-0.5-1.5-0.7-1.6,0.6c-10-9.3-11.3-20.5-8.5-33.2c2.7-12.3,4.4-24.8,6.6-37.1

	c0.8-4.2,2.5-7.9,6.2-10.4c7.1-4.8,14-2.4,17.6,6c-2.6,15.1-4.7,30.2-7.8,45.2c-0.8,3.8-0.6,7.7,2.1,10.8

	C371.3,238.4,372.3,241.8,374.5,238.7z"/>

<path fill="#FBB041" d="M568.6,126.6c-10.7-9-10.3-20.5-7-32.4c4.7-17.1,14.3-31,29.5-40.7c5.1-3.3,10.7-5.2,16.8-5.7

	c8.7-0.7,15.1,2.8,19.2,10.5c0.6,1.1,1.3,2.2,2,3.4c-1.2,1.4-0.6,2.9-0.3,4.3c0.9,3.8,0.6,7.5-0.1,11.3c-2.8,15-9.9,27.5-20.9,38.1

	C596.6,126.2,584.5,132.7,568.6,126.6z"/>

<path fill="#9BCB68" d="M265.4,45.1c2.7,0,1.9-2.3,2.3-3.6c1.2-4,3.7-6,8-5.9c6.5,0.1,12.9,0.1,19.4,0c4.5-0.1,7,1.6,6.3,6.5

	c-0.3,7-1.6,13.8-2.3,20.7c-2.2,21.1-5.1,42.1-7.8,63.1c-0.6,4.4-3,6.9-7.7,6.8c-5.2-0.1-10.1-1.8-15.1-3c-2.5-0.3-3.9-2.1-5.3-3.9

	c0.8-1.9,1.5-3.9,2.5-6.2c-7.9,0-15.4-0.1-22.9,0c-1.9,0-4-0.7-5.6,1.1c-0.4-0.1-0.7-0.1-1.1-0.2c-5.2-5.1-4.8-8.3,1.3-12

	c1.3,0,2.6,0,3.9,0.1c2.3,0,4.6,0,6.9,0c2.3-0.1,2.5-2.1,2.6-3.6c0.1-1.6-1.5-1.4-2.6-1.4c-2.3,0-4.6,0-6.9,0.1

	c-1.1,0.1-2.2,0.2-3.4,0.4c-1-3.8-1.3-7.4,1.5-10.6c1,0,2,0.1,3,0.1c2.3,0,4.7-0.1,7,0.1c3,0.2,3-2,3.3-3.9c0.5-3-2-2-3.3-2.1

	c-2.5-0.2-5-0.1-7.5-0.1c-0.5-0.2-1.1-0.3-1.6-0.5c-2.8-0.9-3.6-3-2.7-5.4c0.8-2.4,2.3-4,5.4-4.1c6.3-0.2,12.8,1.2,19-0.9

	c2.4,1.9,5.1,0.5,7.7,1c3.7,0.6,7.6-1.2,11,1.2c0.9,0.6,1.4,2.3,2.7,1c1.3-1.3,1.9-3.2,1.6-5c-0.2-1.5-1.8-1.2-2.9-1.2

	c-4.3,0-8.6,0-12.9-0.1c-2.2-0.5-2.8-4.2-5.8-3C263.8,62,265.9,53.7,265.4,45.1z M281.3,100.6c1.5-1.9,1.1-4.4,1.8-6.5

	c0.1-0.7,0.1-1.3,0.2-2c0.2-6.3,0.2-6.2-5.2-4.6c-0.9,0.3-2,0.1-3,0.1c-2.7,0-5.3,0-8,0c-2.2,0-4.3,0.8-4.3,3.1

	c-0.1,2.5,2.1,2.9,4.3,2.9c3.5,0,7,0.2,10.4,0.3c0.6,2.1-1.3,5,2,6.1c-3.7,2.9-7.8,4.1-12.5,3.7c-2.2-0.2-4.7-0.2-4.5,3

	c0.2,2.9,2.7,1.8,4.3,1.9c3.3,0.2,6.9-0.6,9.9,0.5c4.4,1.7,4.5-0.7,4.7-3.6C281.5,103.9,281.3,102.3,281.3,100.6z M282.6,58.6

	c-2.5,0.5-5.9-1-6,2.9c-0.1,3.5,3.1,2,5,2.2c2.3,0.3,5,0.4,5.1-3C286.9,57,283.7,59.5,282.6,58.6z M283.4,49.8

	c1.4-1,4.7,1.3,4.7-2.4c-0.1-2.7-2.7-1.9-4.3-1.8c-1.9,0.1-5-1.4-5.2,1.9C278.4,50.8,281.5,49.1,283.4,49.8z M279.2,115.8

	c-0.6,2.5-4.4,1.9-4,4.8c0.1,0.9,1.7,1.2,2.6,0.9C280.2,120.4,280.6,118.5,279.2,115.8z"/>

<path fill="#9BCB68" d="M18.4,259.7c-3.1-1.9-4.3-5-5.1-8.3C9,231.3,4.6,211.2,0.4,191.1c-1.8-8.4,2.1-14.9,9.7-17.2

	c6.9-2.1,11.5,0.6,13.3,7.8c1.6,14.2,3.7,28.4,6.2,43.2c2.8-2.1,2.7-4.2,2.8-6.3c2.1,0.1,2.2-1.6,2.9-2.9

	c5.6-11.3,11.1-22.5,16.8-33.8c2-3.9,4.8-7.1,9.4-8.3c6.9-1.7,12,1.4,14.1,8.7c-2.9,7.7-7.4,14.6-11.3,21.8

	C56,219.9,47,235.4,37.9,250.8C32,260.7,29.8,261.5,18.4,259.7z"/>

<path fill="#9BCB68" d="M214.4,56.5c-4.7-3.2-6.6-8.6-10-12.8c-1.9-2.3-0.6-5,1.8-6.9c2.9-2.4,6-4,9.3-1.1c2.7,2.4,5.2,5.1,7.7,7.8

	c1,1.1,1.8,2.3,3.6,2.8c1-4.1,0.5-9.2,6-10.4c8.2-1.7,16.5-1.3,24.8-0.3c3.3,0.4,4.3,3.3,4,6.5c-1,7.9-1.7,15.8-2.9,23.6

	c-0.9,5.8-3.1,7.6-8.8,7.9c-3,0.2-6,0.3-9,0c-3.5-0.4-4.8,1.5-5.2,4.5c-1.8,14.9-3.6,29.9-5.1,44.8c-0.9,9.1-0.7,9.1-8.9,11.8

	c-3.5-1.1-4.3-3.6-4.3-7.1c-0.1-3.9,2.2-7.8,0.3-11.8c2.5-8.3,4.4-16.7,3.1-25.4c-1.1,0.5-1.6,1.2-1.9,1.9

	c-3.1,9.1-6.1,18.2-9.3,27.3c-2,5.8-3.3,12.3-11.2,13.3c-4.5-2.5-5.3-5.8-3.5-10.7c4.1-11.3,8.8-22.4,11.8-34.1

	c0.7-2.5,2.6-3.6,4.1-5.3c2.2,0.5,4.5,0.9,6.6,1.6c3.8,1.4,5.7,0.5,6-3.5c0.2-1.9,0.1-3.9,0.1-5.9c0.6-3.9,1.1-7.8,1.7-11.8

	c0.4-4.1,0.9-8.1,1.3-12.2C223.4,55.5,219.5,57.3,214.4,56.5z M243.4,58.6c-2.3,0.4-5.7-1.1-5.8,2.8c-0.1,3.2,2.8,2.2,4.5,2.2

	c2.3,0,5.6,1.2,6-2.5C248.5,57.4,245.1,59.2,243.4,58.6z M244.7,45.2c-1.6,1.2-5-1.2-5.1,2.3c-0.1,3.5,3.2,1.9,5,2

	c1.9,0.2,5,1,4.8-2.4C249.3,43.9,246.2,46.5,244.7,45.2z"/>

<path fill="#8D7769" d="M734.4,318.1c3.2-0.6,5.3,1.6,6.4,3.8c2.9,5.7,8.1,8.9,12.7,12.9c11.5,10,25.2,16,39.2,20.9

	c19.2,6.7,39,8.9,59.5,5.5c13-2.2,25.1-5.8,36.3-12.4c16.7-9.9,29.7-23,36.3-41.7c5.2-14.8,6.3-29.8,2.3-44.8

	c-2.6-9.8-6.3-19.3-12.5-27.6c-0.8-1-1.1-2-1.1-3.1c12.6,14.9,20.7,31.9,22.7,51.4c4.5,44.9-26.7,78.1-67.2,86.4

	c-53.6,11-97.9-6-132.5-48.4C735.9,320,735.2,319,734.4,318.1z"/>

<path fill="#9BCB68" d="M528.4,260.7c-6.4-3.5-8.1-6.1-6.9-13.3c3.5-20.9,7.1-41.9,11-62.7c1.5-7.9,8.8-12.5,16.8-11.3

	c3.2,0.5,5.8,1.6,6.8,5c0.9,3.1,1.9,2,3.7,0.5c4-3.4,8.5-5.4,14-5.6c6.1-0.2,8.3,3.8,10.7,8c-1.3,0.9-0.9,2.4-1.2,3.6

	c-0.9,3.7-2.8,6.6-6.6,8.1c-5.1,2-10.1,4.3-15.1,6.5c-6,2.6-9.9,7-10.9,13.7c-1.7,10.3-3.7,20.5-5.2,30.8

	C543.8,254.9,538.6,260.2,528.4,260.7z"/>

<path fill="#8D7769" d="M720.5,145.1c0.6,0,1.6-0.2,1.9,0.1c10.2,14.2,25.7,17.9,41.6,20.4c14.9,2.3,29.2-0.5,43.6-4.2

	c20.4-5.3,38.1-15.5,53.1-29.8c13.5-12.8,23.9-28.1,25.2-47.5c0.4-5.7,0.7-11.9-1.8-17.6c-0.6-1.4-0.5-3.2-0.7-4.9

	c11.2,13.6,12.4,29,7.2,45.1c-7.4,23.1-23.8,38.7-43.8,51.1c-12.7,7.9-26.5,13-41.9,16.5c2.5,1.8,4.8,1.4,6.9,1.6

	c2.3,0.2,4.6,0.5,6.9,0.7c-9.7,0-19.3-1.1-29-0.1c-1.8,0.2-3.7,0-5.3,0.8c-8.3-1.5-16.7-1.2-25-3.4

	C742.5,169.4,728.8,160.9,720.5,145.1z"/>

<path fill="#87796A" d="M646.2,464.7c4.1-0.6,6.2,3.1,8.5,5c12.8,10.8,27.6,16.8,44.1,16.6c11.2-0.2,21.6-4.5,30.6-12

	c11.5-9.6,18.2-21.9,22.2-36c5.9-20.7,5.6-41.4,0.2-62.1c-2.7-10.4-6.3-20.5-11.7-29.9c-0.8-1.4-0.6-2.9-0.7-4.4

	c23.4,35.6,31.5,73.7,16.8,114.7c-7,19.5-20.2,33.6-41.2,38.4c-17.5,4-33.3-1.1-47.7-10.8C659.2,478.9,651.6,472.9,646.2,464.7z"/>

<path fill="#87796A" d="M249,287.7c9.6,3.8,19.4,6.4,29.9,6c26.7-0.8,44.9-16.9,49.4-43.4c3.3-19.6,6.9-39.1,10.6-58.6

	c0.6-3.4,0-6.9,1.4-10.1c5.5,2.2,6.6,6.9,5.7,11.9c-4.1,23.6-8.1,47.2-12.8,70.7c-4.2,21.2-22.1,35.9-44.3,37.4

	c-10.8,0.7-21.3-0.6-31.2-5.1C253.7,294.8,249.9,292.6,249,287.7z"/>

<path fill="#8D7769" d="M534.4,410.6c0.2-0.4,0.1-1.7,1-0.5c8.5,11.7,29.9,10.7,40.7,1.4c15.4-13.3,21.8-30.5,25.5-49.6

	c3.3-17.1,1.3-33.6-3.9-50c-0.8-2.5-3-4.5-2.3-7.4c8.8,11.2,12.7,24.2,14,38.2c0.2,1.7-0.8,3.7,1,5.1c0.3,8.8-2,17.6-1,26.4

	c-3.5,9.1-5.1,18.8-10,27.4c-6.1,10.7-13.2,20.3-24.9,25.4c-11.2,4.8-21.4,2.5-30.6-4.9C539.9,418.9,536.5,415.2,534.4,410.6z"/>

<path fill="#8D7769" d="M646.4,94.5c5.2,1.4,9.6,4.7,15.2,5.4c13.4,1.8,25.3-2.5,36.6-8.8C713.2,82.8,725,71,733,56

	c6.1-11.4,10.1-23.6,5.8-36.8c-0.1-0.4,0.2-0.9,0.4-1.3c10.3,9.9,9.2,21.9,6.8,34.3c-0.3,1.3-0.6,2.6-1,3.8

	c-5.2,5.8-11.6,10.3-16.6,16.4c-6.1,7.3-10.9,15.4-14.9,24c-0.5,1.2-0.5,2.6-0.7,3.9c-0.4-4.8-2.9-1.6-4.2-0.8

	c-9.2,5.6-18.9,9.5-29.6,10.7C663.9,111.8,651.7,106,646.4,94.5z"/>

<path fill="#87796A" d="M634.5,260.6c9.5-0.4,15.3-5.8,16.9-15.1c3-18,6.6-35.8,9.4-53.8c2.5-15.9,6.6-31.5,7.7-47.5

	c6,1.7,8.3,5.1,7.2,11.5c-3.2,18.8-6.6,37.6-9.9,56.4c-2.2,12.6-4.4,25.2-6.6,37.8c-0.8,4.4-1.5,8.9-4.2,12.7

	c-3.3,4.6-8,5.7-13.3,5.1C637.6,267.2,635.3,264.6,634.5,260.6z"/>

<path fill="#87796A" d="M354.4,256.4c0.2-1.3,0.7-1.1,1.6-0.6c16.2,9.2,44.9,6.9,57.9-11.6c4.2-6,6.1-13.1,7.4-20.4

	c2.5-14.1,5.2-28.2,7.9-42.2c4.8,1.8,6,5.9,5.3,10.1c-2.6,16.2-4.9,32.5-8.7,48.4c-3.8,16.1-17.7,26.6-34.3,28.4

	c-7.4,0.8-14.6,0.7-21.7-1.2C363.4,265.6,357.9,262.5,354.4,256.4z"/>

<path fill="#8D7769" d="M568.6,126.6c15.9,6,28-0.5,39.2-11.2c11-10.6,18.1-23.1,20.9-38.1c0.7-3.8,1-7.5,0.1-11.3

	c-0.3-1.4-0.9-2.9,0.3-4.3c4.2,2.9,5.2,7.8,7.3,12c0.1,1.3,0.3,2.6,0.4,3.9c-0.8,21.4-10.2,38.5-26.4,52.1c-5.8,4.9-12.5,8.2-20,9.5

	C580.3,140.8,572.3,136.2,568.6,126.6z"/>

<path fill="#87796A" d="M528.4,260.7c10.2-0.5,15.4-5.7,17-16.6c1.5-10.3,3.5-20.5,5.2-30.8c1.1-6.7,4.9-11.1,10.9-13.7

	c5-2.2,10-4.5,15.1-6.5c3.8-1.5,5.7-4.4,6.6-8.1c0.3-1.3-0.1-2.7,1.2-3.6c2.1,0.5,3.6,1.8,4.8,3.5c-3.1,6.7-8.2,12.2-11.9,18.5

	c-18.7,7.9-18.6,8-22,30.5c-1,6.7-2.1,13.4-3.4,20.1c-1.7,8.9-6.5,13.4-13.9,13.7C532.9,268,529.5,266,528.4,260.7z"/>

<path fill="#87796A" d="M18.4,259.7c11.4,1.8,13.5,1,19.4-8.9c9.1-15.4,18.1-30.8,26.5-46.6c3.8-7.2,8.4-14,11.3-21.8

	c5.9,3.1,4.5,8.3,3.7,13.3c0,0,0.1-0.1,0.1-0.1c-11.3,18.1-21.1,37.1-31.9,55.6c-1.8,3-3.4,6.1-5.1,9.1c-2.9,5.3-7.3,7.8-13.5,7.5

	C22.2,267.6,20.4,266.4,18.4,259.7z"/>

<path fill="#87796A" d="M167,260.7c10.8-0.4,15.5-4.2,17.5-15c2.5-13,4.7-26,6.9-39c1.6-9.7,11.3-16.7,20.8-14.8

	c4.7,1,8.2,3.5,9,8.7c-12.5-3.7-21.6,2.1-24,15c-2.3,12.9-4.6,25.8-7,38.8c-1.7,9.1-6.7,13.6-14.5,13.5

	C170.9,267.7,167.8,265.7,167,260.7z"/>

<path fill="#87796A" d="M493.3,260.7c11.2,0.8,15.6-7.7,16.9-18.2c2.2-17.6,5.9-34.9,9-52.3c0.5-2.9-1.2-6.6,2.3-8.7

	c4.9,2,6.3,4.5,5.3,10.7c-2.2,13.1-4.6,26.1-6.9,39.2c-1.5,8.6-2.9,17.3-4.7,25.9c-1.7,7.8-5.7,10.6-13.3,10.5

	C496.8,267.8,493.9,265.6,493.3,260.7z"/>

<path fill="#87796A" d="M131.3,259.8c8.3,1.8,14.5-1.8,16.2-10.2c4.7-22.7,9.2-45.4,11.9-68.5c5.2,2.4,6.6,5.5,5.5,12.2

	c-1.5,8.8-3,17.6-4.6,26.4c-2.3,12.7-4.5,25.5-7.1,38.1c-1.4,7-5.5,9.9-12.3,10C134.1,267.8,132.7,266.7,131.3,259.8z"/>

<path fill="#87796A" d="M268.6,129.7c5,1.2,9.9,2.9,15.1,3c4.6,0.1,7.1-2.4,7.7-6.8c2.7-21,5.6-42,7.8-63.1

	c0.7-6.9,2.1-13.8,2.3-20.7c3.9,0.7,5.1,3.1,4.6,6.9c-3.3,27.6-6.6,55.2-9.9,82.8c-0.7,5.6-3.7,8.2-9.1,7.5

	c-4.9-0.6-9.8-1.7-14.6-3.2C269.1,134.9,267.7,133.1,268.6,129.7z"/>

<path fill="#87796A" d="M219.7,260.7c10.7-0.5,15.7-4.2,17.6-14.9c3-16.7,7-33.2,8.1-50.2c0.2-2.7-2.1-5.4-0.1-8

	c5.5,5.4,6.8,12.3,5.8,19.3c-2.3,16.1-5.1,32-7.9,48c-1.4,8.1-6.9,12.9-14.2,12.9C224.1,267.8,220.7,265.9,219.7,260.7z"/>

<path fill="#87796A" d="M221.5,134.6c8.3-2.7,8-2.8,8.9-11.8c1.5-15,3.4-29.9,5.1-44.8c0.3-3,1.6-4.8,5.2-4.5c3,0.3,6,0.2,9,0

	c5.8-0.3,8-2.1,8.8-7.9c1.2-7.8,2-15.7,2.9-23.6c1.9,0.2,2.8,1.8,3.9,3.1c0.5,8.6-1.6,16.9-2,25.4c0.1,2.2-0.3,4.2-1.4,6.1

	c-6.3,2.1-12.7,0.7-19,0.9c-3.1,0.1-4.6,1.7-5.4,4.1c-0.8,2.5,0,4.6,2.7,5.4c-0.9,2-0.8,4.2-0.9,6.4c-2.8,3.2-2.6,6.9-1.5,10.6

	c-0.1,1.5-0.3,3-0.4,4.5c-6.1,3.6-6.5,6.9-1.3,12c-0.6,4.6-1.4,9.1-1.7,13.7c-0.3,4.6-2.7,6.3-7.1,6.4

	C223.1,140.7,221.4,138.7,221.5,134.6z"/>

<path fill="#87796A" d="M429.6,68.6c6.9-2.4,8.6-4.4,8.8-12.3c0.1-4.2,1.6-5.7,6-5.7c19.8,0.2,39.6,0.1,59.4,0.1

	c1.7,0,4.6-1.2,4.5,2.2c-0.1,2.7-1.3,4-4.8,4c-19.1-0.4-38.3-0.3-57.4-0.3c-5.6,0-8.1,3.7-6.5,9c1.8,5.9,1,7.1-5.1,8c-1,0.1-2,0-3,0

	C429.6,72.4,429.5,70.5,429.6,68.6z"/>

<path fill="#87796A" d="M186.2,57.7c-7-0.5-13.9,0.6-20.8,0.8c-8.3,0.2-16.5-1.1-24.8-0.9c-5,0.1-9.8,1.7-14.9,1.1

	c-1.5-0.2-3.1-0.2-4.8-0.9c3.6-0.9,6.8-2,8.7-5.4c0.7-1.2,2.5-0.7,3.8-0.7c4.3,0,8.7,0.1,13,0c3.1-0.1,5.6,0.2,7.7,3.1

	c2.3,3.1,7.2,3.1,9.6,0c2.2-2.8,4.6-3.3,7.7-3.2c3.7,0.2,7.3-0.2,11,0.1c4.5,0.3,7.7-1.2,9.9-5.1c3.4,0.5,4.3,2.7,3.9,5.8

	c-0.4,3.2-2.1,5.2-5.5,5.4C189.2,57.8,187.7,57.7,186.2,57.7z"/>

<path fill="#87796A" d="M374.5,238.7c-2.1,3.1-3.2-0.3-3.8-1c-2.7-3.1-2.9-7-2.1-10.8c3.2-15,5.3-30.1,7.8-45.2

	c5.5,3,6.8,6.1,5.6,13.2c-2.4,13.5-4.8,27-7.2,40.4C374.6,236.3,374.6,237.5,374.5,238.7z"/>

<path fill="#87796A" d="M130.3,132.7c5,0.5,8.7-0.9,9-6.6c0.2-2.8,2.1-2.6,3.9-2.6c9,0,18-0.2,27,0.1c4.4,0.1,7.4-1.2,9.3-5.1

	c3.9,0.1,4.7,2.7,4.3,5.8c-0.3,3.5-2.4,5.3-6,5.3c-9.6,0-19.2,0.2-28.9,0c-3.5-0.1-5.2,0.9-5.6,4.5c-0.5,4.7-4,5.7-8,5.4

	C131.1,139.3,129.9,136.6,130.3,132.7z"/>

<path fill="#87796A" d="M327.3,117.1c-0.4,1.4-1.6,2.8-0.5,4.3c-0.7,4.4-1.2,8.8-2,13.2c-0.7,4-3.4,5.9-7.4,5.7

	c-4.2-0.2-5.6-2.9-5.1-6.8c5.9-0.1,7.3-1.4,8-7.5c0.7-5.9,1.4-11.8,2.1-17.7c0.5-3.8,1.6-6.3,6.4-5.9c5.7,0.5,11.6,0.1,17.4,0.1

	c6.4,0,6.5,0.1,5,6.5c-5.5,0-10.9-0.1-16.4-0.1C327.5,109.2,327.3,109.4,327.3,117.1z"/>

<path fill="#87796A" d="M80.8,253.7c7.1,4.3,14.2,7.8,23.1,7.2c6.2-0.4,11.4-2.4,16.2-5.9c3.3-2.5,6.1-4.5,7.5,1.6

	c0.3,1.2,2,1.8,1.9,3.3c-14.7,13.3-35.9,12.1-46.8-2.7C81.8,256.1,81.4,254.8,80.8,253.7z"/>

<path fill="#87796A" d="M444.2,256.8c0.7-1,1.4-0.5,2.2-0.1c13.2,7,25.5,5.5,37.1-3.6c1.1-0.9,2.5-1.9,3,0.2

	c0.7,2.8,3.2,4.6,3.9,7.4C475.4,273.4,454.2,271.6,444.2,256.8z"/>

<path fill="#87796A" d="M379,132.7c4.1,0,8.3,0,12.4,0c8.3,0,11.7-3.4,12-11.5c0.3-6.4,2.3-12.6,2.1-19.1c0-1.2,0.9-2.1,2-2.6

	c2.9,1.7,3.3,4.4,3,7.4c-0.9,7.9-1.7,15.9-2.8,23.8c-0.8,5.4-4.3,8.5-9.7,9c-4.9,0.4-9.7,0-14.4-1.2

	C380.9,137.7,378,136.6,379,132.7z"/>

<path fill="#87796A" d="M450.9,131.7c4.1,0.4,8.1,1.1,12.3,1c10.9-0.2,18.7-7,20.1-17.9c0.3-2.6,0.9-5.1,1.5-8.4

	c2,2.4,4.1,3.7,4.5,6.3c-0.4,2.6-0.7,5.3-1.3,7.9c-3.2,16.1-18.3,23.7-33.4,16.8C452.4,136.3,450.4,134.8,450.9,131.7z"/>

<path fill="#87796A" d="M587,256.7c4.9,0.9,8.9,4.2,14.2,4.1c8.5-0.1,16.5-1.2,23-7.3c1.4-1.3,2.7-0.9,3.7,0.6

	c1.5,2.2,2.9,4.4,4.4,6.5C618.6,273.3,596.1,271.4,587,256.7z"/>

<path fill="#87796A" d="M462.1,119.8c-1.9-0.4-3.9-0.6-5.7-1.1c-5.7-1.6-7.6-0.6-9.3,5c-0.5,1.6-0.6,3.6-2.7,4.4

	c-4.7,2.4-9.7,3.9-14.9,5.1c-5.5,1.3-7.4,0.1-8.7-5.5c16.1-3.4,30.5-10.8,44.3-19.4c1.7-1,3.8-3.4,5.6-1.8c1.4,1.3,0.6,4.1,0.2,6.2

	c-0.1,1-0.6,1.9-0.9,2.8C466.9,115.9,464.5,117.8,462.1,119.8z"/>

<path fill="#87796A" d="M262.1,256.8c0.4-0.2,1-0.6,1.3-0.4c14.4,7.9,27.8,5.5,40.6-4.2c0.4,8.7-3.5,15.1-9.7,16.6

	c-6.1,0.7-12.2,1.5-18.3-0.9C270.2,265.5,265.2,262.5,262.1,256.8z"/>

<path fill="#87796A" d="M331.2,125.7c11.4-1.7,22.9-3.4,34.3-5.1c2.3-0.3,4.6-0.8,6.9-1c3.2-0.2,6.4-0.1,2.8,4.3

	c-0.6,0.7-0.6,1.8-0.9,2.7c-12,1.7-24,3.4-36,5C332.7,132.4,331.7,131.5,331.2,125.7z"/>

<path fill="#87796A" d="M404.2,92.6c-8-1.7-16.2-0.6-24.3-0.9c-3-0.1-6,0.1-9-0.1c-1.6-0.1-4.3,1-4.3-1.8c-0.1-3.2,2.9-2,4.6-2.1

	c7-0.1,14-0.1,20.9-0.1c2.9,0,5.4-0.6,7.9-2.4c1.9-1.4,3.1-2.7,3.5-5c0.8-4.7,1.8-9.4,1.9-14.2c0-1.8,0-3.7,1-5.3c3,1,4.1,3.3,4,6.1

	c-0.2,7-1.2,13.9-2.4,20.7C407.6,89.7,406.2,91.5,404.2,92.6z"/>

<path fill="#87796A" d="M198.2,132.7c7.9-0.9,9.2-7.4,11.2-13.3c3.1-9.1,6.2-18.2,9.3-27.3c0.2-0.7,0.8-1.3,1.9-1.9

	c1.3,8.8-0.6,17.1-3.1,25.4c-2.3,6.2-4.5,12.5-6.9,18.6c-1.2,3.2-3.8,4.5-7.2,3.8C200.3,137.6,197.9,136.5,198.2,132.7z"/>

<path fill="#9BCB68" d="M204.3,74.7c-1.2-1.6-2.4-3.1-3.5-4.7c-2.3-3.2-2-6.5,0.6-9.1c2.5-2.5,5.7-3.2,9-0.6

	c4.6,3.7,8.5,7.9,11.1,13.2c-4.1,3.4-7.6,9-14.2,4.3c0,0,0.1,0,0.1,0c-0.4-0.4-0.7-0.7-1.1-1.1c0,0,0,0.1,0,0.1

	C206.4,75.3,205.7,74.7,204.3,74.7z"/>

<path fill="#87796A" d="M179.4,113.8c-5.1-2.2-10.5-1-15.7-1.2c-6.3-0.2-12.6,0-18.9,0c-1.7,0-3.4-0.1-3.4-2.5

	c0-2.4,1.6-2.5,3.4-2.5c10.3,0,20.6-0.2,30.8,0.1c4.4,0.1,7.8-0.9,9.7-5c4,0.1,4.3,2.8,4.2,5.8c-0.2,3.3-1.8,5.3-5.2,5.4

	C182.7,114,181,113.8,179.4,113.8z"/>

<path fill="#87796A" d="M424.1,108.8c5.9-3.4,12.8-4.3,18.9-7.3c8.1-3.9,15.9-8.1,23.5-12.8c1.1-0.7,2.4-3.1,4-0.5

	c1.4,2.3-0.4,3.3-1.9,4.3c-13.3,9.2-27.3,16.8-43.1,21.1C424.9,112,424,110.5,424.1,108.8z"/>

<path fill="#87796A" d="M493.4,91.6c5.1,0.1,8.4-3.4,11.9-6.3c3.6-3,6.2-7.2,10.3-9.8c4.2,2.5,4.3,5.8,1.3,9

	c-3.9,4.3-7.9,8.5-12.8,11.8C498.6,99.9,494.4,98.1,493.4,91.6z"/>

<path fill="#87796A" d="M515.2,73.5c-2.1-1.6-2.9-4.4-6.1-5.7c8.3-2.5,10-9.7,13-15.7c1-1.9,0.3-4.8,3.3-5.6

	c2.9,1.6,3.5,4.4,2.8,7.2c-1.5,6.5-4.5,12.3-8.4,17.6C518.7,72.8,517.2,73.7,515.2,73.5z"/>

<path fill="#87796A" d="M92,123.7c9.4,0,18.8,0.2,28.2-0.3c5.1-0.3,7,1.3,6.1,6.3c-9.4,0-18.9-0.2-28.3,0.1

	C93.4,130,91.5,128.2,92,123.7z"/>

<path fill="#87796A" d="M426.7,87.6c11.7-1.8,22.1-6.9,32.4-12.4c1.6-0.8,3.2-2.7,4.6-0.3c1.2,2-1,2.9-2.3,3.7

	c-10.4,5.8-20.7,12.1-32.4,15C427.8,91.7,426,90.1,426.7,87.6z"/>

<path fill="#87796A" d="M480.5,76.6c-1-0.6-1.1-1.7-1.1-2.6c-0.1-2-3.8-3-2-4.9c1.5-1.6,4.3-1.4,6.6-1.4c3.8,0.1,7.7,0,11.5,0

	c2.8,0.1,5.3-0.7,7.1-2.9c0.9-1.1,1.7-3,3.1-0.5c0.8,1.4,3.1,2.7,0.1,4.2c-2.9,1.4-4.5,4.3-6.9,6.3c-4.9-0.1-9.9-0.2-14.8-0.2

	C482.6,74.7,480.5,73.9,480.5,76.6z"/>

<path fill="#87796A" d="M175.2,96.6c-3.2,0.2-6.6,0.6-5.7-4.6c0.3-2.1,1.1-3.4,3.4-3.4c2.3,0,4.6,0,6.9,0c6.7,0,7.6-0.8,8.7-7.7

	c0.9,1.1-0.1,3,1.9,3.6c3.2,0.8,3.3,3.4,2.7,5.9c-0.7,2.8-2.5,4.6-5.6,4.8c-2.6,0.1-5.3,0-7.9,0.2C178.1,95.4,176.2,94.7,175.2,96.6

	z"/>

<path fill="#87796A" d="M406,56.5c-2.8-1.6-5.8-2.2-9-2c-1.6,0.1-3.5,0.3-3.6-2.3c-0.1-2.8,1.9-2.6,3.8-2.6c3.5,0,7-0.2,10.4,0.1

	c3.9,0.3,6.4-1.2,7.7-4.8c4.5,0.5,4.4,3.7,4.1,7c-0.3,3.3-2.7,4.4-5.5,4.5C411.3,56.6,408.6,56.5,406,56.5z"/>

<path fill="#87796A" d="M92,108.8c0.7-0.4,1.4-1.1,2.1-1.1c10.5-0.1,21-0.1,31.5-0.1c1.5,0,2.8,0.3,2.5,2.2

	c-0.3,1.8-1.4,2.8-3.5,2.8c-8.3-0.1-16.7,0.1-25-0.1c-2.4,0-5,0.9-7.2-0.9C92.2,110.7,92.1,109.8,92,108.8z"/>

<path fill="#87796A" d="M32.4,218.6c0,2.1,0,4.2-2.8,6.3c-2.5-14.8-4.6-28.9-6.2-43.2c3.2,1.2,4.4,4,4.8,7

	C29.8,198.6,31,208.6,32.4,218.6z"/>

<path fill="#87796A" d="M495.5,120.7c3.2,0.7,4.5,3.7,6.9,5.4c2.9,2,6,4.2,9.4,2.4c3.3-1.8,4.2-5.3,3.6-9.1c1.1,1.2,1.2,2.9,2.5,4.1

	c3.7,3.2,3.6,6.3,0.5,10.2c-2.9,3.6-6,2.9-9.2,0.6C503.8,130.6,498.9,126.4,495.5,120.7z"/>

<path fill="#87796A" d="M237.2,120.7c1.6-1.8,3.7-1.1,5.6-1.1c7.5-0.1,15,0,22.9,0c-0.9,2.3-1.7,4.2-2.5,6.2c-7.1,0-14.2-0.1-21.4,0

	C238.2,125.9,236.8,124.3,237.2,120.7z"/>

<path fill="#87796A" d="M177.2,76.6c-1.5,0.7-3.3,1.9-4.4,0.1c-1.2-1.9-0.6-4.2-0.3-6.3c0.3-2.1,2.2-1.7,3.6-1.6

	c4.1,0.2,8,0.3,10.3-4.1c4,0.6,4.5,3.4,3.9,6.6c-0.6,3.3-2.8,4.4-6,4.5C181.9,75.8,179.4,74.8,177.2,76.6z"/>

<path fill="#87796A" d="M322.4,88.5c7-1.8,14.1-0.4,21.2-0.8c2.3-0.1,4.6,0,7,0c1.4,0,2.8,0.2,2.7,2.1c-0.1,1.9-1.5,1.9-2.8,1.9

	c-5.8,0-11.6,0-17.4,0c-3.5,0-7,0-10.4-0.1C322.5,90.6,322.5,89.5,322.4,88.5z"/>

<path fill="#87796A" d="M97.4,52.6c5.6-2,11.5-0.9,17.2-0.8c2.4,0.1,2.1,3.7,3.9,5.9c-6,0-12,0-18,0C97.7,57.1,97.4,54.9,97.4,52.6z

	"/>

<path fill="#87796A" d="M207.2,77.7c6.6,4.7,10.1-0.8,14.2-4.3c0.6,0.5,1.3,0.9,1.9,1.4c0,2,0.1,3.9-0.1,5.9c-0.4,4-2.2,4.9-6,3.5

	c-2.1-0.8-4.4-1.1-6.6-1.6C209.9,80.7,207.1,80.2,207.2,77.7z"/>

<path fill="#87796A" d="M319.4,50.6c4.3-1.8,8.9-0.6,13.3-0.9c1.6-0.1,2.5,0.6,2.5,2.3c0,2-1.1,2.5-2.9,2.5c-3.6,0-7.3-0.6-10.5,1.8

	C319.9,55,319.2,53,319.4,50.6z"/>

<path fill="#87796A" d="M214.4,56.5c5.1,0.9,9-0.9,11.9-5.6c-0.4,4.1-0.9,8.1-1.3,12.2C219.1,64.7,217.3,59.6,214.4,56.5z"/>

<path fill="#87796A" d="M90.4,88.7c2.9,0,5.9-0.1,8.8-0.1c1.5,0,3.6-0.7,4,1.7c0.4,1.9,0.5,4-2.2,4.7c-1.2,0-2.4,0-3.6,0

	c-1.1,0-2.2-0.1-3.3-0.1C90.4,94.4,90.4,91.6,90.4,88.7z"/>

<path fill="#87796A" d="M98.4,69.7c7.8-0.1,8.3,0.4,6,6.7C99.7,76.5,98.3,73.7,98.4,69.7z"/>

<path fill="#87796A" d="M488.7,90.4c-4-2.1-5-5.8-5.3-9.9C486.4,83.2,487.2,87,488.7,90.4z"/>

<path fill="#87796A" d="M639.7,456.8c3.5,1.5,5.7,4.2,6.6,7.9C643.3,462.7,641.6,459.7,639.7,456.8z"/>

<path fill="#87796A" d="M204.3,74.7c1.3,0,2.1,0.6,2,2C204.9,76.8,204.6,75.8,204.3,74.7z"/>

<path fill="#8D7769" d="M883.4,61.7c-0.8-0.4-1.5-1-1.7-2C882.6,60.1,883.3,60.6,883.4,61.7z"/>

<path fill="#87796A" d="M483.4,80.6c-1-0.4-1-1.2-1-2.1C483.4,78.9,483.7,79.6,483.4,80.6z"/>

<path fill="#87796A" d="M482.5,78.6c-0.4-0.4-0.7-0.7-1.1-1.1C482.1,77.5,482.4,78,482.5,78.6z"/>

<path fill="#87796A" d="M481.5,77.6c-0.4-0.4-0.7-0.7-1.1-1.1C481,76.6,481.5,76.9,481.5,77.6z"/>

<path fill="#87796A" d="M206.3,76.6c0.4,0.4,0.7,0.7,1.1,1.1C206.6,77.7,206.2,77.4,206.3,76.6z"/>

<path fill="#87796A" d="M309.2,202c-10.5-2.1-18.3,1.5-23.7,10.9c-4.4,7.7-5.4,15.9-3.9,24.6c-3.7-1.4-5.5-4.7-6-8.1

	c-1.5-11.6-0.2-22.5,9.3-31c5.9-5.2,13.2-6.2,19.7-2.7C307.3,197.2,308.5,199.4,309.2,202z"/>

<path fill="#87796A" d="M364.6,49.7c4.3,0,8.6,0,12.9,0c1.4,0,2.7,0.3,2.7,2.1c0,1.5-0.9,2.6-2.4,2.6c-9.1,0.1-18.2,0.1-27.3,0.1

	c-1.8,0-2.1-1.2-2-2.7c0.1-1.8,1.4-2,2.8-2C355.7,49.7,360.1,49.7,364.6,49.7z"/>

<path fill="#87796A" d="M344.3,67.6c-3.2,0-6.3,0-9.5,0c-1.3,0-2.3-0.3-2.3-1.9c0-1.5,1-2,2.3-2c6.5,0,12.9-0.1,19.4,0

	c1.4,0,2.8,0.4,2.7,2.2c-0.1,1.4-1.4,1.7-2.6,1.7C350.9,67.6,347.6,67.6,344.3,67.6z"/>

<path fill="#87796A" d="M381.3,67.6c-3.2,0-6.3,0-9.5,0c-1.3,0-2.3-0.3-2.4-1.9c0-1.5,1-2,2.3-2c6.1,0,12.3,0,18.4,0

	c1.4,0,2.8,0.3,2.7,2.1c-0.1,1.4-1.4,1.8-2.6,1.8C387.3,67.7,384.3,67.6,381.3,67.6C381.3,67.6,381.3,67.6,381.3,67.6z"/>

<path fill="#87796A" d="M343.7,74.6c3.1,0,6.3,0,9.4,0c0.8,0,1.7,0.2,1.8,1.2c0.2,1.3-0.8,1.7-1.9,1.7c-6.5,0-12.9,0-19.4,0

	c-1,0-2.1-0.2-2.1-1.5c0-1.3,1.1-1.5,2.2-1.5C337.1,74.6,340.4,74.6,343.7,74.6z"/>

<path fill="#87796A" d="M379.2,77.7c-3.1,0-6.3,0-9.4,0c-1.1,0-1.9-0.1-1.9-1.6c0-1.5,1-1.5,2-1.5c6.3,0,12.6,0,18.9,0

	c1,0,2.2,0,2.3,1.3c0.1,1.7-1.3,1.7-2.4,1.7C385.5,77.7,382.4,77.6,379.2,77.7C379.2,77.7,379.2,77.7,379.2,77.7z"/>

<path fill="#87796A" d="M385.5,108.9c-0.5-0.2-1.1-0.2-1.4-0.5c-1.2-1.5-3.7-3-3.1-4.7c0.7-2.1,3.5-1,5.3-1c7.7-0.2,8.5,0.8,5.5,6.3

	C389.7,108.9,387.6,108.9,385.5,108.9z"/>

<path fill="#87796A" d="M364.3,106.6c-0.6-3.5,1.6-4.6,4.2-4.5c0.9,0,3.9,0,2.9,2c-1.2,2.4-1,6.3-5,6.5

	C363.5,110.6,364.7,108.1,364.3,106.6z"/>

<path fill="#87796A" d="M387.4,113.6c1.3,1.6,2.6,3.2,3.9,4.8c0.2,4.4-2.7,2.9-6,3.3C387.6,118.8,387.4,116.2,387.4,113.6z"/>

<path fill="#87796A" d="M125.4,69.6c1.5,0,3,0,4.5,0c2,0,2.6,1,2.5,2.8c0,1.6-0.1,2.9-2.2,3.2c-2.1,0.3-4.2,1.4-6.2,1.3

	c-2-0.1-5.4,2.8-5.9-1.6c-0.4-3.4,0.3-6.8,5.3-5.8C124,69.8,124.7,69.7,125.4,69.6C125.4,69.6,125.4,69.6,125.4,69.6z"/>

<path fill="#87796A" d="M143.6,93.5c-0.7-4.2,0.8-5.2,3.8-5c2.3,0.2,4.7,0.1,7,0c1.6,0,3,0.3,3,2.3c0,1.7,0,3-2.1,3.9

	c-3.3,1.4-6.8,0.2-10.2,1.4C142.8,97.1,143.7,93.9,143.6,93.5z"/>

<path fill="#87796A" d="M120.6,96.5c-2-0.4-5.2,1.5-5.1-2.6c0-3.3,1-6,5.2-5.4c1.1,0.2,2.3,0,3.5,0c6.7,0,6.7,0,5.6,6.8

	C126.8,95.5,123.4,93.6,120.6,96.5z"/>

<path fill="#87796A" d="M150.4,77.6c-2.7,0.1-5.2,0.6-5.2-3.7c0-4.2,2.1-4.6,5.3-4.3c1,0.1,2,0.2,3,0c5.3-0.9,6.8,1.5,5.8,6.3

	C156.3,76.8,152.7,73.7,150.4,77.6z"/>

<path fill="#87796A" d="M631.3,201.6c-10.8-2.5-18.7,4.6-22.8,12c-4.5,7.9-5.2,16.3-3.2,25c-8.1-4.2-8.6-11.6-7.8-19.2

	c1-10,4.7-18.8,13.9-23.8c6-3.3,12.1-2.9,17.7,1.5C630.5,198.2,631.6,199.5,631.3,201.6z"/>

<path fill="#87796A" d="M489.2,201.8c-14-3.8-23.7,8.8-26.8,20.5c-1.5,5.5-1,10.8,0.2,16.2c-4.6-1.2-5.7-5.4-6.7-9

	c-3.4-12.1,2.1-27.8,13-33.8C477.1,191.1,486.5,193.9,489.2,201.8z"/>

<path fill="#87796A" d="M127.3,201.7c-9.4-2.1-17.8,2.2-23.2,11.9c-4,7.2-5.1,14.9-3.8,22.9c-6.3-2.4-5.6-8.3-5.7-13

	c-0.3-9.9,2.8-18.9,10.6-25.7c5.7-5.1,14.6-5.7,20.7-1.3C128.4,198.3,128.9,199.9,127.3,201.7z"/>

<path fill="#87796A" d="M277.5,93.9c-3.5-0.1-7-0.3-10.4-0.3c-2.2,0-4.4-0.4-4.3-2.9c0.1-2.3,2.1-3.1,4.3-3.1c2.7,0,5.3,0,8,0

	c1,0,2,0.1,3-0.1c5.5-1.6,5.5-1.6,5.2,4.6c0,0.7-0.1,1.3-0.2,2C281.3,94,279.4,93.9,277.5,93.9z"/>

<path fill="#87796A" d="M281.3,100.6c0,1.7,0.1,3.3,0,5c-0.2,2.8-0.3,5.3-4.7,3.6c-2.9-1.1-6.6-0.3-9.9-0.5

	c-1.6-0.1-4.1,0.9-4.3-1.9c-0.2-3.2,2.4-3.3,4.5-3c4.7,0.5,8.8-0.8,12.5-3.7C280.1,100.2,280.7,100.4,281.3,100.6z"/>

<path fill="#87796A" d="M269.2,73.5c4.3,0,8.6,0,12.9,0.1c1.1,0,2.6-0.3,2.9,1.2c0.3,1.8-0.3,3.7-1.6,5c-1.3,1.3-1.8-0.4-2.7-1

	c-3.4-2.4-7.4-0.6-11.1-1.2C269.5,76.2,269.4,74.9,269.2,73.5z"/>

<path fill="#87796A" d="M241.9,87.6c2.5,0,5-0.1,7.5,0.1c1.4,0.1,3.8-1,3.3,2.1c-0.3,1.9-0.3,4.1-3.3,3.9c-2.3-0.2-4.6-0.1-7-0.1

	C242.3,91.6,242.1,89.6,241.9,87.6z"/>

<path fill="#87796A" d="M282.6,58.6c1.2,1,4.3-1.6,4.1,2.1c-0.1,3.4-2.8,3.2-5.1,3c-1.9-0.2-5.1,1.3-5-2.2

	C276.6,57.6,280.1,59,282.6,58.6z"/>

<path fill="#87796A" d="M241.3,103.7c2.3,0,4.6-0.1,6.9-0.1c1.1,0,2.7-0.2,2.6,1.4c-0.1,1.5-0.2,3.5-2.6,3.6c-2.3,0.1-4.6,0-6.9,0

	C241.3,107,241.3,105.4,241.3,103.7z"/>

<path fill="#87796A" d="M283.4,49.8c-1.9-0.7-5,1-4.8-2.2c0.2-3.3,3.3-1.8,5.2-1.9c1.6-0.1,4.3-1,4.3,1.8

	C288.2,51.1,284.8,48.8,283.4,49.8z"/>

<path fill="#87796A" d="M279.2,115.8c1.4,2.7,1.1,4.7-1.4,5.6c-0.9,0.4-2.5,0-2.6-0.9C274.8,117.6,278.6,118.2,279.2,115.8z"/>

<path fill="#87796A" d="M243.4,58.6c1.7,0.6,5.1-1.2,4.7,2.5c-0.4,3.7-3.7,2.5-6,2.5c-1.7,0-4.6,1.1-4.5-2.2

	C237.8,57.5,241.2,59,243.4,58.6z"/>

<path fill="#87796A" d="M244.7,45.2c1.5,1.3,4.6-1.4,4.7,1.9c0.1,3.3-2.9,2.5-4.8,2.4c-1.8-0.1-5.1,1.5-5-2

	C239.7,44,243.1,46.4,244.7,45.2z"/>

</svg>

